<?xml version="1.0" encoding="UTF-8" standalone="no"?>
<svg
   width="240"
   height="80"
   version="1.1"
   id="svg11"
   sodipodi:docname="download-i.svg"
   inkscape:version="1.2.2 (b0a84865, 2022-12-01)"
   xmlns:inkscape="http://www.inkscape.org/namespaces/inkscape"
   xmlns:sodipodi="http://sodipodi.sourceforge.net/DTD/sodipodi-0.dtd"
   xmlns="http://www.w3.org/2000/svg"
   xmlns:svg="http://www.w3.org/2000/svg">
  <defs
     id="defs11">
    <inkscape:path-effect
       effect="fillet_chamfer"
       id="path-effect11"
       is_visible="true"
       lpeversion="1"
       nodesatellites_param="F,0,1,1,0,4.5638325,0,1 @ F,0,0,1,0,4.5638325,0,1 @ F,0,1,1,0,4.5638325,0,1"
       radius="0"
       unit="px"
       method="auto"
       mode="F"
       chamfer_steps="1"
       flexible="false"
       use_knot_distance="true"
       apply_no_radius="true"
       apply_with_radius="true"
       only_selected="false"
       hide_knots="false" />
  </defs>
  <sodipodi:namedview
     id="namedview11"
     pagecolor="#505050"
     bordercolor="#ffffff"
     borderopacity="1"
     inkscape:showpageshadow="0"
     inkscape:pageopacity="0"
     inkscape:pagecheckerboard="1"
     inkscape:deskcolor="#d1d1d1"
     inkscape:current-layer="g11"
     showgrid="false"
     inkscape:zoom="5.2083333"
     inkscape:cx="120.48"
     inkscape:cy="78.432"
     inkscape:window-width="1394"
     inkscape:window-height="933"
     inkscape:window-x="234"
     inkscape:window-y="25"
     inkscape:window-maximized="0" />
  <g
     transform="matrix(0.80064692,0,0,0.79808701,-349.19351,-144.30405)"
     id="g11"
     style="stroke-width:1.25099">
    <rect
       ry="16"
       rx="16"
       y="181.994"
       x="437.31699"
       height="97.876999"
       width="297.39999"
       style="vector-effect:none;fill:#ffffff;fill-opacity:1;stroke:#000000;stroke-width:2.35846;stroke-linecap:butt;stroke-linejoin:miter;stroke-miterlimit:4;stroke-dasharray:none;stroke-dashoffset:0;stroke-opacity:1;marker:none;paint-order:normal"
       id="rect1" />
    <g
       aria-label="Flathub"
       style="font-weight:600;font-size:36.6564px;line-height:125%;font-family:Inter;-inkscape-font-specification:'Inter, Semi-Bold';text-align:center;letter-spacing:0;word-spacing:0;baseline-shift:baseline;text-anchor:middle;display:inline;overflow:visible;stroke-width:1.70189;marker:none;marker-start:none;marker-mid:none;marker-end:none;enable-background:accumulate"
       id="g8">
      <path
         d="m 548.712,252.946 h 4.83 v -11.325 h 11.077 v -4.048 h -11.078 v -7.237 h 12.25 v -4.049 h -17.079 z"
         id="path2"
         style="stroke-width:1.70189" />
      <path
         d="m 574.681,226.287 h -4.712 v 26.66 h 4.712 z"
         id="path3"
         style="stroke-width:1.70189" />
      <path
         d="m 585.277,253.35 c 3.137,0 5.012,-1.471 5.871,-3.15 h 0.156 v 2.746 h 4.53 v -13.381 c 0,-5.285 -4.308,-6.873 -8.122,-6.873 -4.205,0 -7.433,1.874 -8.475,5.519 l 4.4,0.625 c 0.469,-1.367 1.797,-2.539 4.1,-2.539 2.187,0 3.385,1.12 3.385,3.086 v 0.078 c 0,1.353 -1.419,1.418 -4.946,1.796 -3.88,0.417 -7.59,1.575 -7.59,6.079 0,3.931 2.877,6.014 6.691,6.014 z m 1.224,-3.463 c -1.966,0 -3.372,-0.898 -3.372,-2.63 0,-1.808 1.576,-2.563 3.684,-2.863 1.237,-0.17 3.71,-0.481 4.322,-0.976 v 2.356 c 0,2.226 -1.796,4.113 -4.634,4.113 z"
         id="path4"
         style="stroke-width:1.70189" />
      <path
         d="m 610.57,232.952 h -3.945 v -4.79 h -4.712 v 4.79 h -2.837 v 3.645 h 2.837 v 11.117 c -0.026,3.761 2.708,5.61 6.249,5.506 1.34,-0.04 2.265,-0.3 2.772,-0.469 l -0.794,-3.684 c -0.26,0.065 -0.794,0.183 -1.38,0.183 -1.184,0 -2.135,-0.417 -2.135,-2.318 v -10.335 h 3.945 z"
         id="path5"
         style="stroke-width:1.70189" />
      <path
         d="m 619.643,241.231 c 0,-2.89 1.796,-4.556 4.321,-4.556 2.474,0 3.932,1.575 3.932,4.27 v 12.001 h 4.712 v -12.73 c 0,-4.83 -2.734,-7.524 -6.886,-7.524 -3.072,0 -5.025,1.393 -5.95,3.658 h -0.233 v -10.063 h -4.608 v 26.66 h 4.712 z"
         id="path6"
         style="stroke-width:1.70189" />
      <path
         d="m 650.142,244.537 c 0,3.046 -2.174,4.556 -4.257,4.556 -2.265,0 -3.775,-1.6 -3.775,-4.14 v -12.001 h -4.712 v 12.73 c 0,4.804 2.734,7.525 6.665,7.525 2.994,0 5.103,-1.575 6.014,-3.814 h 0.208 v 3.553 h 4.57 v -19.994 h -4.713 z"
         id="path7"
         style="stroke-width:1.70189" />
      <path
         d="m 659.905,252.946 h 4.634 v -3.15 h 0.273 c 0.742,1.458 2.291,3.502 5.728,3.502 4.712,0 8.24,-3.736 8.24,-10.323 0,-6.665 -3.632,-10.283 -8.253,-10.283 -3.528,0 -4.999,2.121 -5.715,3.566 h -0.195 v -9.97 h -4.712 z m 4.621,-9.997 c 0,-3.879 1.666,-6.391 4.7,-6.391 3.136,0 4.75,2.668 4.75,6.391 0,3.75 -1.64,6.483 -4.75,6.483 -3.008,0 -4.7,-2.604 -4.7,-6.483 z"
         id="path8"
         style="stroke-width:1.70189" />
    </g>
    <g
       style="fill:#000000;stroke-width:0.897712"
       transform="matrix(1.24662,0,0,1.24662,281.22,98.198)"
       id="g10">
      <circle
         style="fill:#000000;stroke-width:0.237518"
         cx="166.688"
         cy="95.647003"
         r="9.0480003"
         id="circle8" />
      <rect
         style="fill:#000000;stroke-width:0.237518"
         width="16.412001"
         height="16.412001"
         x="158.414"
         y="107.798"
         rx="4.3769999"
         ry="4.3769999"
         id="rect8" />
      <path
         style="fill:#000000;stroke-width:0.223702"
         transform="matrix(0.9259024,0.53457,0.53457,-0.9259024,99.82665,110.69315)"
         d="M 69.183167,58.833 H 57.816832 a 2.6349801,2.6349801 59.999528 0 1 -2.281981,-3.952432 l 5.683298,-9.844136 a 2.6348297,2.6348297 0 0 1 4.563702,0 l 5.683298,9.844136 A 2.6349801,2.6349801 120.00047 0 1 69.183167,58.833 Z"
         id="path9"
         sodipodi:nodetypes="cccc"
         inkscape:path-effect="#path-effect11"
         inkscape:original-d="M 73.747,58.833 H 53.253 L 63.5,41.084 Z" />
      <path
         style="fill:#000000;stroke-width:2.37518"
         d="m 194.992,116.11 c 0,0.88 -0.708,1.587 -1.588,1.587 h -12.7 c -0.88,0 -1.587,-0.708 -1.587,-1.587 0,-0.88 0.708,-1.588 1.587,-1.588 h 12.7 c 0.88,0 1.588,0.708 1.588,1.588 z m -7.938,-7.938 c 0.88,0 1.588,0.708 1.588,1.588 v 12.7 c 0,0.88 -0.708,1.587 -1.588,1.587 -0.88,0 -1.587,-0.708 -1.587,-1.587 v -12.7 c 0,-0.88 0.708,-1.588 1.587,-1.588 z"
         id="path10" />
    </g>
    <g
       aria-label="下载应用，请到"
       transform="scale(0.99840007,1.0016025)"
       id="text355"
       style="font-size:15.0119px;font-family:'Noto Sans SC';-inkscape-font-specification:'Noto Sans SC, Normal';fill:#ffffff;stroke-width:1.56498">
      <path
         id="path703"
         style="font-weight:500;-inkscape-font-specification:'Noto Sans SC Medium';fill:#000000"
         d="m 644.21229,214.51974 h 2.83725 v -1.21596 h -2.83725 v -1.48618 h -1.32104 v 1.48618 H 640.054 v 1.21596 h 2.83725 v 2.31183 c -1.261,0.22518 -2.44694,0.42034 -3.34766,0.54043 l 0.30024,1.32105 c 1.98157,-0.3753 4.80381,-0.90071 7.4459,-1.41112 l -0.0751,-1.21596 c -1.00579,0.18014 -2.01159,0.36028 -3.00238,0.52541 z m -4.53359,-6.80039 h 2.1467 c -0.42033,0.94575 -0.93074,1.75639 -1.11088,2.0116 -0.2552,0.36028 -0.48038,0.61548 -0.72057,0.67553 0.16513,0.34527 0.36028,0.99079 0.45036,1.27601 0.40532,-0.16513 0.97577,-0.24019 5.40428,-0.61549 0.18014,0.28523 0.31525,0.58547 0.43534,0.82566 l 1.08086,-0.69055 c -0.43534,-0.87069 -1.38109,-2.22176 -2.19174,-3.19753 l -1.00579,0.58546 c 0.33026,0.40532 0.66052,0.8857 0.99078,1.36608 l -3.31763,0.25521 c 0.55544,-0.73559 1.09587,-1.62129 1.53122,-2.49198 h 4.00817 v -1.21596 h -7.7011 z m 9.7127,-0.82565 h -1.30604 v 9.00714 h 1.30604 z m 1.59126,-1.11088 v 11.61921 c 0,0.2552 -0.0751,0.33026 -0.33026,0.33026 -0.24019,0.015 -1.06585,0.015 -1.90651,-0.015 0.21016,0.36028 0.43534,0.99078 0.49539,1.35107 1.12589,0 1.93653,-0.03 2.44694,-0.25521 0.48038,-0.21016 0.66052,-0.61548 0.66052,-1.41111 v -11.61921 z m -22.66794,2.29682 c -0.48038,-0.61549 -1.5162,-1.56124 -2.31183,-2.22176 l -0.88571,0.85567 c 0.79564,0.70556 1.78642,1.69635 2.25179,2.32685 z m -0.66052,8.25654 v -6.13987 h -3.39269 v 1.33606 h 2.05663 v 5.10405 c 0,0.66052 -0.42034,1.12589 -0.73559,1.32105 0.24019,0.27021 0.58547,0.84066 0.70556,1.17092 0.24019,-0.31525 0.67554,-0.69054 3.25759,-2.68713 -0.15012,-0.27021 -0.3753,-0.81064 -0.46537,-1.17092 z m 3.55782,-0.19515 v -1.05084 h 4.32342 v 1.05084 z m 4.32342,-2.97236 v 0.97577 h -4.32342 v -0.97577 z m 1.32105,-1.05083 h -6.9355 v 7.22072 h 1.29103 v -2.22176 h 4.32342 v 0.76561 c 0,0.18014 -0.06,0.24019 -0.27021,0.2552 -0.19516,0 -0.90072,0.015 -1.59126,-0.03 0.15012,0.33026 0.33026,0.85567 0.39031,1.20095 1.05083,0 1.74138,-0.015 2.20675,-0.21017 0.45035,-0.19515 0.58546,-0.55544 0.58546,-1.18594 z m -2.79221,-1.77141 v -0.87069 h 3.01739 v -0.97577 h -3.01739 v -0.78062 h 3.46775 v -1.03582 h -3.46775 v -1.11088 h -1.3811 v 1.11088 h -3.34765 v 1.03582 h 3.34765 v 0.78062 h -2.97235 v 0.97577 h 2.97235 v 0.87069 h -3.81302 v 1.03582 h 9.11222 v -1.03582 z m -22.87811,9.62263 c 1.71136,-0.54043 2.76219,-1.84646 2.76219,-3.49777 0,-1.14091 -0.49539,-1.87649 -1.44114,-1.87649 -0.69055,0 -1.27601,0.43535 -1.27601,1.20095 0,0.76561 0.58546,1.18594 1.261,1.18594 0.0751,0 0.15011,0 0.21016,-0.015 -0.0751,0.91573 -0.75059,1.60627 -1.90651,2.02661 z m -9.29234,-6.39507 v -2.22176 h 3.63288 v 2.22176 z m -4.71373,0 c 0.045,-0.55544 0.06,-1.11088 0.06,-1.62128 v -0.60048 h 3.25759 v 2.22176 z m 3.31763,-5.64447 v 2.11668 h -3.25759 v -2.11668 z m 5.02898,2.11668 h -3.63288 v -2.11668 h 3.63288 z m 1.39611,-3.45274 h -11.06377 v 5.34423 c 0,2.11668 -0.15012,4.77379 -1.78642,6.59023 0.31525,0.16513 0.8857,0.64551 1.09587,0.91572 1.09587,-1.21596 1.6363,-2.89729 1.87649,-4.5486 h 3.45274 v 4.2934 h 1.3961 v -4.2934 h 3.63288 v 2.68713 c 0,0.28523 -0.10508,0.3753 -0.3753,0.3753 -0.28522,0 -1.27601,0.015 -2.23677,-0.03 0.18014,0.36029 0.40532,0.97578 0.46537,1.35107 1.3811,0.015 2.25179,-0.015 2.80723,-0.24019 0.54042,-0.21016 0.73558,-0.6305 0.73558,-1.44114 z m -14.21624,2.13169 v -1.32105 h -4.93892 c -0.19515,-0.57045 -0.54043,-1.33606 -0.87069,-1.96656 l -1.38109,0.34528 c 0.24019,0.49539 0.48038,1.09586 0.67553,1.62128 h -5.82461 v 4.0382 c 0,2.11668 -0.10509,5.13407 -1.23098,7.23574 0.33026,0.1351 0.96076,0.54043 1.21596,0.79563 1.23098,-2.2668 1.42614,-5.71954 1.42614,-8.03137 v -2.71715 z m -4.50357,5.95972 c -0.22518,-1.38109 -0.78062,-3.43772 -1.29102,-5.05901 l -1.27602,0.33026 c 0.48038,1.62129 1.02081,3.73797 1.21597,5.11906 z m -2.76219,0.72057 c -0.33026,-1.38109 -1.03582,-3.43772 -1.69635,-5.04399 l -1.21596,0.46536 c 0.60048,1.62129 1.32105,3.73797 1.60627,5.13407 z m 3.55782,1.96656 c 1.33606,-2.25178 2.43193,-4.87887 3.13749,-7.31079 l -1.47117,-0.51041 c -0.57045,2.53701 -1.68133,5.55441 -3.12248,7.8212 h -5.74955 v 1.32105 h 11.09379 V 217.372 Z m -11.61918,-9.60761 c -0.36029,-0.55544 -1.15592,-1.39611 -1.81644,-1.95155 l -1.0058,0.64551 c 0.64551,0.61549 1.41112,1.47117 1.7714,2.02661 z m -1.41112,2.94233 c -0.34528,1.30603 -0.82566,2.53701 -1.42613,3.6629 -0.22518,-1.21596 -0.40532,-2.71715 -0.51041,-4.38347 h 3.75298 v -1.11088 h -3.79801 c -0.045,-1.03582 -0.045,-2.1467 -0.03,-3.28761 h -1.38109 c 0,1.12589 0.03,2.23677 0.0601,3.28761 h -3.48276 v -1.08086 h 2.56703 v -1.09587 h -2.56703 v -1.11088 h -1.33606 v 1.11088 h -2.68713 v 1.09587 h 2.68713 v 1.08086 h -3.43773 v 1.11088 h 2.76219 c -0.15012,0.46537 -0.31525,0.90071 -0.49539,1.33606 h -2.05663 v 1.11088 h 1.5162 c -0.19515,0.40532 -0.3753,0.72057 -0.48038,0.87069 -0.2552,0.40532 -0.46537,0.69054 -0.73558,0.75059 0.18014,0.33026 0.36028,0.96076 0.43534,1.24599 0.13511,-0.15012 0.61549,-0.24019 1.21597,-0.24019 h 1.87648 v 1.27601 c -1.48618,0.1201 -2.83725,0.22518 -3.88808,0.28523 l 0.13511,1.261 3.75297,-0.34528 v 1.74138 h 1.30604 v -1.87648 c 0.84066,-0.06 1.69634,-0.15012 2.522,-0.24019 l 0.015,-1.14091 -2.53701,0.21017 v -1.17093 h 2.22176 l 0.015,-1.15592 h -2.23677 v -1.06584 h -1.30604 v 1.06584 H 566.631 c 0.30023,-0.43534 0.60047,-0.94575 0.8857,-1.47116 h 4.69872 v -1.11088 h -4.12827 c 0.15012,-0.34528 0.31525,-0.67554 0.45036,-1.02081 l -1.15592,-0.31525 h 5.31421 c 0.13511,2.32684 0.39031,4.39848 0.85568,6.00476 -0.70556,0.97577 -1.5162,1.81644 -2.44694,2.46195 0.34528,0.2552 0.7506,0.66052 0.96076,0.97577 0.73559,-0.57045 1.41112,-1.23097 2.0116,-1.99658 0.52542,1.12589 1.23097,1.78642 2.16171,1.78642 1.1259,0 1.54623,-0.64552 1.7564,-2.91231 -0.34528,-0.1201 -0.79564,-0.42034 -1.08086,-0.72057 -0.0751,1.65131 -0.24019,2.29682 -0.55544,2.29682 -0.52542,0 -1.0058,-0.64551 -1.36608,-1.74138 0.94574,-1.50119 1.68133,-3.22756 2.22176,-5.07403 z m -13.2855,-2.62708 v -1.42613 h -13.25551 v 1.42613 h 5.56941 v 11.24391 h 1.48618 v -7.55099 c 1.62129,0.90072 3.49777,2.07165 4.45854,2.88229 l 1.0208,-1.27601 c -1.15591,-0.90072 -3.51278,-2.23678 -5.22414,-3.06243 l -0.2552,0.30024 v -2.53701 z" />
    </g>
  </g>
</svg>
