<?xml version="1.0" encoding="UTF-8" standalone="no"?>
<svg
   width="240"
   height="80"
   version="1.1"
   id="svg11"
   sodipodi:docname="download.svg"
   inkscape:version="1.2.2 (b0a84865, 2022-12-01)"
   xmlns:inkscape="http://www.inkscape.org/namespaces/inkscape"
   xmlns:sodipodi="http://sodipodi.sourceforge.net/DTD/sodipodi-0.dtd"
   xmlns="http://www.w3.org/2000/svg"
   xmlns:svg="http://www.w3.org/2000/svg">
  <defs
     id="defs11" />
  <sodipodi:namedview
     id="namedview11"
     pagecolor="#505050"
     bordercolor="#ffffff"
     borderopacity="1"
     inkscape:showpageshadow="0"
     inkscape:pageopacity="0"
     inkscape:pagecheckerboard="1"
     inkscape:deskcolor="#d1d1d1"
     inkscape:current-layer="g11"
     showgrid="false"
     inkscape:zoom="5.2083333"
     inkscape:cx="120.096"
     inkscape:cy="40.032"
     inkscape:window-width="1394"
     inkscape:window-height="933"
     inkscape:window-x="310"
     inkscape:window-y="288"
     inkscape:window-maximized="0" />
  <g
     transform="matrix(0.80142259,0,0,0.79887263,-278.78814,-120.98753)"
     id="g11"
     style="stroke-width:1.24977">
    <rect
       style="vector-effect:none;fill:#000000;fill-opacity:1;stroke:#888a85;stroke-width:2.35389;stroke-linecap:butt;stroke-linejoin:miter;stroke-miterlimit:4;stroke-dasharray:none;stroke-dashoffset:0;stroke-opacity:1;marker:none;paint-order:normal"
       width="297.117"
       height="97.782997"
       x="349.04199"
       y="152.627"
       rx="16"
       ry="16"
       id="rect1" />
    <path
       id="path703"
       style="font-weight:500;font-size:15.0119px;font-family:'Noto Sans SC';-inkscape-font-specification:'Noto Sans SC Medium';fill:#ffffff;stroke-width:1.56345"
       d="m 554.70861,185.46578 h 2.82997 v -1.21671 h -2.82997 v -1.4871 h -1.31765 v 1.4871 h -2.82997 v 1.21671 h 2.82997 v 2.31325 c -1.25776,0.22532 -2.44066,0.4206 -3.33907,0.54077 l 0.29947,1.32186 c 1.97649,-0.37553 4.79148,-0.90126 7.42679,-1.41199 l -0.0749,-1.21671 c -1.00321,0.18025 -2.00643,0.3605 -2.99468,0.52574 z m -4.52196,-6.80459 h 2.1412 c -0.41926,0.94633 -0.92836,1.75747 -1.10803,2.01284 -0.25455,0.3605 -0.47915,0.61586 -0.71872,0.67595 0.1647,0.34548 0.35935,0.9914 0.4492,1.27679 0.40428,-0.16523 0.97327,-0.24033 5.39041,-0.61587 0.17968,0.28541 0.31444,0.58584 0.43422,0.82617 l 1.07809,-0.69097 c -0.43422,-0.87123 -1.37755,-2.22313 -2.18612,-3.19951 l -1.0032,0.58583 c 0.32941,0.40557 0.65882,0.88624 0.98823,1.36692 l -3.30911,0.25537 c 0.55401,-0.73605 1.09305,-1.62229 1.52729,-2.49352 h 3.99788 v -1.21671 h -7.68134 z m 9.68778,-0.82616 h -1.30269 v 9.0127 h 1.30269 z m 1.58718,-1.11157 v 11.62639 c 0,0.25535 -0.0749,0.33046 -0.32942,0.33046 -0.23957,0.015 -1.06311,0.015 -1.90161,-0.015 0.20962,0.3605 0.43422,0.99139 0.49411,1.35191 1.12301,0 1.93156,-0.03 2.44067,-0.25537 0.47914,-0.21029 0.65882,-0.61586 0.65882,-1.41198 v -11.62639 z m -22.60977,2.29824 c -0.47915,-0.61587 -1.51231,-1.5622 -2.3059,-2.22313 l -0.88344,0.8562 c 0.7936,0.70599 1.78184,1.69739 2.24601,2.32828 z m -0.65883,8.26164 v -6.14366 h -3.38398 v 1.33688 h 2.05135 v 5.1072 c 0,0.66093 -0.41926,1.12659 -0.7337,1.32187 0.23957,0.27038 0.58397,0.84118 0.70375,1.17164 0.23957,-0.31544 0.6738,-0.69096 3.24923,-2.68879 -0.14974,-0.27037 -0.37434,-0.81114 -0.46418,-1.17164 z m 3.54869,-0.19527 v -1.05149 h 4.31233 v 1.05149 z m 4.31233,-2.9742 v 0.97638 h -4.31233 v -0.97638 z m 1.31766,-1.05148 h -6.9177 v 7.22518 h 1.28771 v -2.22313 h 4.31233 v 0.76608 c 0,0.18025 -0.0598,0.24034 -0.26952,0.25536 -0.19466,0 -0.89841,0.015 -1.58718,-0.03 0.14974,0.33047 0.32942,0.8562 0.38931,1.20169 1.04814,0 1.73691,-0.015 2.20109,-0.2103 0.44919,-0.19527 0.58396,-0.55578 0.58396,-1.18667 z m -2.78505,-1.7725 v -0.87123 h 3.00965 v -0.97637 h -3.00965 v -0.7811 h 3.45885 v -1.03646 h -3.45885 v -1.11157 h -1.37755 v 1.11157 h -3.33906 v 1.03646 h 3.33906 v 0.7811 h -2.96473 v 0.97637 h 2.96473 v 0.87123 h -3.80324 v 1.03646 h 9.08884 v -1.03646 z m -22.8194,9.62857 c 1.70697,-0.54076 2.75511,-1.8476 2.75511,-3.49993 0,-1.14161 -0.49412,-1.87765 -1.43745,-1.87765 -0.68877,0 -1.27273,0.43562 -1.27273,1.20169 0,0.76609 0.58396,1.18668 1.25776,1.18668 0.0749,0 0.14973,0 0.20962,-0.015 -0.0749,0.91629 -0.74866,1.60726 -1.90161,2.02786 z m -9.26849,-6.39902 v -2.22313 h 3.62356 v 2.22313 z m -4.70163,0 c 0.0449,-0.55578 0.0598,-1.11156 0.0598,-1.62228 v -0.60085 h 3.24923 v 2.22313 z m 3.30911,-5.64795 v 2.11798 H 507.857 v -2.11798 z m 5.01608,2.11798 h -3.62356 v -2.11798 h 3.62356 z m 1.39252,-3.45487 h -11.03537 v 5.34753 c 0,2.11799 -0.14974,4.77674 -1.78184,6.5943 0.31444,0.16523 0.88343,0.64591 1.09306,0.91629 1.09306,-1.21671 1.6321,-2.89908 1.87167,-4.55141 h 3.44388 v 4.29605 h 1.39252 v -4.29605 h 3.62356 v 2.68879 c 0,0.2854 -0.10481,0.37553 -0.37434,0.37553 -0.28449,0 -1.27274,0.015 -2.23103,-0.03 0.17968,0.36051 0.40428,0.97638 0.46418,1.35191 1.37755,0.015 2.24601,-0.015 2.80002,-0.24034 0.53904,-0.21029 0.73369,-0.63089 0.73369,-1.44203 z m -14.17975,2.13301 v -1.32187 h -4.92625 c -0.19465,-0.5708 -0.53904,-1.33688 -0.86845,-1.96777 l -1.37755,0.34549 c 0.23957,0.4957 0.47915,1.09654 0.6738,1.62228 h -5.80967 v 4.0407 c 0,2.11798 -0.10482,5.13724 -1.22782,7.2402 0.32942,0.13519 0.9583,0.54077 1.21284,0.79613 1.22782,-2.2682 1.42248,-5.72308 1.42248,-8.03633 v -2.71883 z m -4.49202,5.9634 c -0.2246,-1.38194 -0.77861,-3.43984 -1.2877,-5.06214 l -1.27275,0.33047 c 0.47915,1.62229 1.01819,3.74028 1.21285,5.12222 z m -2.7551,0.72101 c -0.32941,-1.38194 -1.03316,-3.43984 -1.69199,-5.0471 l -1.21284,0.46565 c 0.59894,1.62229 1.31766,3.74027 1.60214,5.13724 z m 3.54869,1.96778 c 1.33263,-2.25317 2.42569,-4.88188 3.12944,-7.31531 l -1.46739,-0.51072 c -0.56899,2.53858 -1.67702,5.55784 -3.11447,7.82603 h -5.7348 v 1.32186 h 11.06532 v -1.32186 z m -11.58936,-9.61354 c -0.35937,-0.55579 -1.15295,-1.39698 -1.81178,-1.95276 l -1.00322,0.64591 c 0.64386,0.61587 1.4075,1.47208 1.76686,2.02786 z m -1.4075,2.94414 c -0.34439,1.30684 -0.82354,2.53858 -1.42247,3.66516 -0.2246,-1.21671 -0.40428,-2.71882 -0.5091,-4.38617 h 3.74335 v -1.11157 h -3.78826 c -0.0449,-1.03646 -0.0449,-2.14802 -0.0299,-3.28964 h -1.37754 c 0,1.12659 0.0299,2.23815 0.0599,3.28964 h -3.47382 v -1.08153 h 2.56044 v -1.09654 h -2.56044 v -1.11157 h -1.33263 v 1.11157 h -2.68023 v 1.09654 h 2.68023 v 1.08153 h -3.42891 v 1.11157 h 2.7551 c -0.14973,0.46565 -0.31444,0.90126 -0.49412,1.33688 h -2.05135 v 1.11157 h 1.51231 c -0.19465,0.40557 -0.37434,0.72101 -0.47915,0.87123 -0.25454,0.40557 -0.46417,0.69096 -0.73369,0.75105 0.17968,0.33046 0.35936,0.96135 0.43422,1.24676 0.13477,-0.15021 0.61392,-0.24034 1.21285,-0.24034 h 1.87167 v 1.2768 c -1.48237,0.12017 -2.82997,0.22532 -3.8781,0.2854 l 0.13476,1.26178 3.74334,-0.34549 v 1.74246 h 1.30269 v -1.87764 c 0.8385,-0.06 1.69198,-0.15022 2.51553,-0.24034 l 0.015,-1.14162 -2.5305,0.2103 v -1.17165 h 2.21606 l 0.015,-1.15663 H 480.411 v -1.0665 h -1.30269 v 1.0665 h -1.78183 c 0.29946,-0.43561 0.59893,-0.94634 0.88343,-1.47207 h 4.68666 v -1.11157 h -4.11767 c 0.14973,-0.34549 0.31444,-0.67595 0.4492,-1.02144 l -1.15295,-0.31544 h 5.30057 c 0.13476,2.32827 0.38931,4.40119 0.85348,6.00847 -0.70375,0.97637 -1.51231,1.81756 -2.44066,2.46347 0.3444,0.25535 0.74868,0.66092 0.9583,0.97637 0.7337,-0.5708 1.4075,-1.23173 2.00644,-1.99781 0.52407,1.12658 1.22781,1.78752 2.15616,1.78752 1.12301,0 1.54226,-0.64592 1.75189,-2.91411 -0.34439,-0.12017 -0.7936,-0.4206 -1.07809,-0.72101 -0.0749,1.65232 -0.23957,2.29823 -0.55401,2.29823 -0.52407,0 -1.00322,-0.64591 -1.36257,-1.74245 0.94331,-1.50212 1.67701,-3.22955 2.21605,-5.07717 z m -13.2514,-2.6287 v -1.42701 h -13.2215 v 1.42701 h 5.55512 v 11.25085 h 1.48237 v -7.55565 c 1.61713,0.90128 3.48879,2.07293 4.44709,2.88407 l 1.01818,-1.2768 c -1.15294,-0.90127 -3.50376,-2.23816 -5.21073,-3.06432 l -0.25454,0.30043 v -2.53858 z" />
    <g
       aria-label="Flathub"
       style="font-weight:600;font-size:36.6564px;line-height:125%;font-family:Inter;-inkscape-font-specification:'Inter, Semi-Bold';text-align:center;letter-spacing:0;word-spacing:0;baseline-shift:baseline;text-anchor:middle;display:inline;overflow:visible;fill:#ffffff;stroke-width:1.70023;marker:none;marker-start:none;marker-mid:none;marker-end:none;enable-background:accumulate"
       id="g8">
      <path
         d="m 460.153,222.645 h 4.83 V 211.32 h 11.077 v -4.048 h -11.078 v -7.238 h 12.25 v -4.048 h -17.08 z"
         id="path2"
         style="stroke-width:1.70023" />
      <path
         d="m 486.122,195.986 h -4.712 v 26.66 h 4.712 z"
         id="path3"
         style="stroke-width:1.70023" />
      <path
         d="m 496.718,223.049 c 3.137,0 5.012,-1.471 5.87,-3.15 h 0.157 v 2.746 h 4.53 v -13.382 c 0,-5.285 -4.309,-6.873 -8.123,-6.873 -4.204,0 -7.433,1.875 -8.474,5.52 l 4.4,0.625 c 0.468,-1.367 1.796,-2.539 4.1,-2.539 2.187,0 3.385,1.12 3.385,3.085 v 0.078 c 0,1.354 -1.42,1.42 -4.947,1.797 -3.879,0.416 -7.589,1.575 -7.589,6.079 0,3.93 2.877,6.014 6.691,6.014 z m 1.224,-3.463 c -1.966,0 -3.372,-0.898 -3.372,-2.63 0,-1.809 1.575,-2.564 3.684,-2.863 1.237,-0.17 3.71,-0.482 4.322,-0.976 v 2.356 c 0,2.226 -1.797,4.113 -4.634,4.113 z"
         id="path4"
         style="stroke-width:1.70023" />
      <path
         d="m 522.01,202.65 h -3.944 v -4.79 h -4.712 v 4.79 h -2.838 v 3.646 h 2.838 v 11.116 c -0.026,3.762 2.708,5.61 6.248,5.506 1.341,-0.039 2.265,-0.299 2.773,-0.468 l -0.794,-3.684 c -0.26,0.065 -0.794,0.182 -1.38,0.182 -1.185,0 -2.135,-0.416 -2.135,-2.317 v -10.335 h 3.944 z"
         id="path5"
         style="stroke-width:1.70023" />
      <path
         d="m 531.083,210.93 c 0,-2.89 1.797,-4.556 4.322,-4.556 2.473,0 3.931,1.575 3.931,4.27 v 12.001 h 4.713 v -12.73 c 0,-4.83 -2.734,-7.525 -6.887,-7.525 -3.072,0 -5.024,1.393 -5.948,3.658 h -0.235 v -10.062 h -4.608 v 26.66 h 4.712 z"
         id="path6"
         style="stroke-width:1.70023" />
      <path
         d="m 561.583,214.236 c 0,3.046 -2.174,4.556 -4.257,4.556 -2.265,0 -3.775,-1.601 -3.775,-4.14 v -12.001 h -4.712 v 12.73 c 0,4.804 2.733,7.524 6.665,7.524 2.994,0 5.102,-1.575 6.014,-3.814 h 0.208 v 3.554 h 4.569 v -19.994 h -4.712 z"
         id="path7"
         style="stroke-width:1.70023" />
      <path
         d="m 571.346,222.645 h 4.634 v -3.15 h 0.273 c 0.742,1.458 2.291,3.502 5.728,3.502 4.712,0 8.24,-3.736 8.24,-10.323 0,-6.665 -3.632,-10.284 -8.253,-10.284 -3.528,0 -4.999,2.122 -5.715,3.567 h -0.195 v -9.971 h -4.712 z m 4.62,-9.997 c 0,-3.88 1.667,-6.392 4.7,-6.392 3.137,0 4.751,2.669 4.751,6.392 0,3.749 -1.64,6.482 -4.751,6.482 -3.007,0 -4.7,-2.603 -4.7,-6.482 z"
         id="path8"
         style="stroke-width:1.70023" />
    </g>
    <g
       style="fill:#ffffff;stroke-width:0.896836"
       transform="matrix(1.24662,0,0,1.24662,192.661,67.896)"
       id="g10">
      <circle
         style="fill:#ffffff;stroke-width:0.237287"
         cx="166.688"
         cy="95.647003"
         r="9.0480003"
         id="circle8" />
      <rect
         style="fill:#ffffff;stroke-width:0.237287"
         width="16.412001"
         height="16.412001"
         x="158.414"
         y="107.798"
         rx="4.3769999"
         ry="4.3769999"
         id="rect8" />
      <path
         style="fill:#ffffff;stroke-width:0.223484"
         d="M 69.514,58.833 H 57.486 a 2.444,2.444 60 0 1 -2.117,-3.666 l 0.89,-1.542 5.124,-8.875 a 2.444,2.444 0 0 1 4.234,0 l 0.89,1.542 5.124,8.875 a 2.444,2.444 120 0 1 -2.117,3.666 z"
         transform="matrix(0.9259024,0.53457,0.53457,-0.9259024,99.82665,110.69315)"
         id="path9" />
      <path
         style="fill:#ffffff;stroke-width:2.37287"
         d="m 194.992,116.11 c 0,0.88 -0.708,1.587 -1.588,1.587 h -12.7 c -0.88,0 -1.587,-0.708 -1.587,-1.587 0,-0.88 0.708,-1.588 1.587,-1.588 h 12.7 c 0.88,0 1.588,0.708 1.588,1.588 z m -7.938,-7.938 c 0.88,0 1.588,0.708 1.588,1.588 v 12.7 c 0,0.88 -0.708,1.587 -1.588,1.587 -0.88,0 -1.587,-0.708 -1.587,-1.587 v -12.7 c 0,-0.88 0.708,-1.588 1.587,-1.588 z"
         id="path10" />
    </g>
  </g>
</svg>
