<?xml version="1.0" encoding="UTF-8" standalone="no"?>
<svg
   width="240"
   height="80"
   version="1.1"
   id="svg11"
   sodipodi:docname="download-i.svg"
   inkscape:version="1.2.2 (b0a84865, 2022-12-01)"
   xmlns:inkscape="http://www.inkscape.org/namespaces/inkscape"
   xmlns:sodipodi="http://sodipodi.sourceforge.net/DTD/sodipodi-0.dtd"
   xmlns="http://www.w3.org/2000/svg"
   xmlns:svg="http://www.w3.org/2000/svg">
  <defs
     id="defs11">
    <inkscape:path-effect
       effect="fillet_chamfer"
       id="path-effect11"
       is_visible="true"
       lpeversion="1"
       nodesatellites_param="F,0,1,1,0,4.5638325,0,1 @ F,0,0,1,0,4.5638325,0,1 @ F,0,1,1,0,4.5638325,0,1"
       radius="0"
       unit="px"
       method="auto"
       mode="F"
       chamfer_steps="1"
       flexible="false"
       use_knot_distance="true"
       apply_no_radius="true"
       apply_with_radius="true"
       only_selected="false"
       hide_knots="false" />
  </defs>
  <sodipodi:namedview
     id="namedview11"
     pagecolor="#505050"
     bordercolor="#ffffff"
     borderopacity="1"
     inkscape:showpageshadow="0"
     inkscape:pageopacity="0"
     inkscape:pagecheckerboard="1"
     inkscape:deskcolor="#d1d1d1"
     inkscape:current-layer="g11"
     showgrid="false"
     inkscape:zoom="2.7556146"
     inkscape:cx="114.49351"
     inkscape:cy="56.067346"
     inkscape:window-width="1394"
     inkscape:window-height="933"
     inkscape:window-x="101"
     inkscape:window-y="64"
     inkscape:window-maximized="0" />
  <g
     transform="matrix(0.80064692,0,0,0.79808701,-349.19351,-144.30405)"
     id="g11"
     style="stroke-width:1.25099">
    <rect
       ry="16"
       rx="16"
       y="181.994"
       x="437.31699"
       height="97.876999"
       width="297.39999"
       style="vector-effect:none;fill:#ffffff;fill-opacity:1;stroke:#000000;stroke-width:2.35846;stroke-linecap:butt;stroke-linejoin:miter;stroke-miterlimit:4;stroke-dasharray:none;stroke-dashoffset:0;stroke-opacity:1;marker:none;paint-order:normal"
       id="rect1" />
    <g
       aria-label="Flathub"
       style="font-weight:600;font-size:36.6564px;line-height:125%;font-family:Inter;-inkscape-font-specification:'Inter, Semi-Bold';text-align:center;letter-spacing:0;word-spacing:0;baseline-shift:baseline;text-anchor:middle;display:inline;overflow:visible;stroke-width:1.70189;marker:none;marker-start:none;marker-mid:none;marker-end:none;enable-background:accumulate"
       id="g8">
      <path
         d="m 548.712,252.946 h 4.83 v -11.325 h 11.077 v -4.048 h -11.078 v -7.237 h 12.25 v -4.049 h -17.079 z"
         id="path2"
         style="stroke-width:1.70189" />
      <path
         d="m 574.681,226.287 h -4.712 v 26.66 h 4.712 z"
         id="path3"
         style="stroke-width:1.70189" />
      <path
         d="m 585.277,253.35 c 3.137,0 5.012,-1.471 5.871,-3.15 h 0.156 v 2.746 h 4.53 v -13.381 c 0,-5.285 -4.308,-6.873 -8.122,-6.873 -4.205,0 -7.433,1.874 -8.475,5.519 l 4.4,0.625 c 0.469,-1.367 1.797,-2.539 4.1,-2.539 2.187,0 3.385,1.12 3.385,3.086 v 0.078 c 0,1.353 -1.419,1.418 -4.946,1.796 -3.88,0.417 -7.59,1.575 -7.59,6.079 0,3.931 2.877,6.014 6.691,6.014 z m 1.224,-3.463 c -1.966,0 -3.372,-0.898 -3.372,-2.63 0,-1.808 1.576,-2.563 3.684,-2.863 1.237,-0.17 3.71,-0.481 4.322,-0.976 v 2.356 c 0,2.226 -1.796,4.113 -4.634,4.113 z"
         id="path4"
         style="stroke-width:1.70189" />
      <path
         d="m 610.57,232.952 h -3.945 v -4.79 h -4.712 v 4.79 h -2.837 v 3.645 h 2.837 v 11.117 c -0.026,3.761 2.708,5.61 6.249,5.506 1.34,-0.04 2.265,-0.3 2.772,-0.469 l -0.794,-3.684 c -0.26,0.065 -0.794,0.183 -1.38,0.183 -1.184,0 -2.135,-0.417 -2.135,-2.318 v -10.335 h 3.945 z"
         id="path5"
         style="stroke-width:1.70189" />
      <path
         d="m 619.643,241.231 c 0,-2.89 1.796,-4.556 4.321,-4.556 2.474,0 3.932,1.575 3.932,4.27 v 12.001 h 4.712 v -12.73 c 0,-4.83 -2.734,-7.524 -6.886,-7.524 -3.072,0 -5.025,1.393 -5.95,3.658 h -0.233 v -10.063 h -4.608 v 26.66 h 4.712 z"
         id="path6"
         style="stroke-width:1.70189" />
      <path
         d="m 650.142,244.537 c 0,3.046 -2.174,4.556 -4.257,4.556 -2.265,0 -3.775,-1.6 -3.775,-4.14 v -12.001 h -4.712 v 12.73 c 0,4.804 2.734,7.525 6.665,7.525 2.994,0 5.103,-1.575 6.014,-3.814 h 0.208 v 3.553 h 4.57 v -19.994 h -4.713 z"
         id="path7"
         style="stroke-width:1.70189" />
      <path
         d="m 659.905,252.946 h 4.634 v -3.15 h 0.273 c 0.742,1.458 2.291,3.502 5.728,3.502 4.712,0 8.24,-3.736 8.24,-10.323 0,-6.665 -3.632,-10.283 -8.253,-10.283 -3.528,0 -4.999,2.121 -5.715,3.566 h -0.195 v -9.97 h -4.712 z m 4.621,-9.997 c 0,-3.879 1.666,-6.391 4.7,-6.391 3.136,0 4.75,2.668 4.75,6.391 0,3.75 -1.64,6.483 -4.75,6.483 -3.008,0 -4.7,-2.604 -4.7,-6.483 z"
         id="path8"
         style="stroke-width:1.70189" />
    </g>
    <g
       style="fill:#000000;stroke-width:0.897712"
       transform="matrix(1.24662,0,0,1.24662,281.22,98.198)"
       id="g10">
      <circle
         style="fill:#000000;stroke-width:0.237518"
         cx="166.688"
         cy="95.647003"
         r="9.0480003"
         id="circle8" />
      <rect
         style="fill:#000000;stroke-width:0.237518"
         width="16.412001"
         height="16.412001"
         x="158.414"
         y="107.798"
         rx="4.3769999"
         ry="4.3769999"
         id="rect8" />
      <path
         style="fill:#000000;stroke-width:0.223702"
         transform="matrix(0.9259024,0.53457,0.53457,-0.9259024,99.82665,110.69315)"
         d="M 69.183167,58.833 H 57.816832 a 2.6349801,2.6349801 59.999528 0 1 -2.281981,-3.952432 l 5.683298,-9.844136 a 2.6348297,2.6348297 0 0 1 4.563702,0 l 5.683298,9.844136 A 2.6349801,2.6349801 120.00047 0 1 69.183167,58.833 Z"
         id="path9"
         sodipodi:nodetypes="cccc"
         inkscape:path-effect="#path-effect11"
         inkscape:original-d="M 73.747,58.833 H 53.253 L 63.5,41.084 Z" />
      <path
         style="fill:#000000;stroke-width:2.37518"
         d="m 194.992,116.11 c 0,0.88 -0.708,1.587 -1.588,1.587 h -12.7 c -0.88,0 -1.587,-0.708 -1.587,-1.587 0,-0.88 0.708,-1.588 1.587,-1.588 h 12.7 c 0.88,0 1.588,0.708 1.588,1.588 z m -7.938,-7.938 c 0.88,0 1.588,0.708 1.588,1.588 v 12.7 c 0,0.88 -0.708,1.587 -1.588,1.587 -0.88,0 -1.587,-0.708 -1.587,-1.587 v -12.7 c 0,-0.88 0.708,-1.588 1.587,-1.588 z"
         id="path10" />
    </g>
    <g
       aria-label="取得應用程式，請至"
       transform="matrix(0.99840007,0,0,0.99339281,0,1.8062224)"
       id="text1052"
       style="font-weight:500;font-size:15.0119px;font-family:'Noto Sans SC';-inkscape-font-specification:'Noto Sans SC Medium';fill:#ffffff;stroke-width:1.56498">
      <path
         id="path1089"
         style="fill:#000000"
         d="m 682.65776,211.54739 c -0.79563,-1.03583 -2.49197,-2.50699 -3.82803,-3.49778 l -1.11088,0.73559 c 0.54042,0.42033 1.12589,0.91572 1.68133,1.42613 l -6.28999,0.21016 c 0.82566,-0.78062 1.69635,-1.74138 2.47697,-2.7772 h 7.04058 v -1.29102 h -12.51993 v 1.29102 h 3.67792 c -0.81064,1.06585 -1.68133,1.98157 -2.02661,2.25179 -0.39031,0.39031 -0.72057,0.6305 -1.02081,0.69054 0.15012,0.3753 0.3753,1.08086 0.45036,1.36609 0.61549,-0.22518 1.50119,-0.24019 9.38244,-0.58547 0.36028,0.3753 0.64551,0.72057 0.87069,1.02081 z m -5.5544,5.95972 v -2.46195 h 4.71373 v -1.29103 h -4.71373 v -1.74138 h -1.45616 v 1.74138 h -4.56361 v 1.29103 h 4.56361 v 2.46195 h -5.89967 v 1.30603 h 13.3756 v -1.30603 z m -18.74984,-2.29682 v 2.1467 h -2.08665 v -2.1467 z m 1.17093,-1.12589 h -4.39849 v 5.07402 h 1.14091 v -0.67554 h 3.25758 z m -4.38347,-0.94575 h 4.30841 v -1.08086 h -4.30841 z m 4.30841,-3.06243 h -4.30841 v 1.09587 h 4.30841 z m -1.17093,-2.61207 c -0.24019,-0.54043 -0.67553,-1.33606 -1.09586,-1.96656 l -1.03583,0.55544 c 0.3753,0.61549 0.81065,1.47117 1.03583,2.02661 h -2.6421 v 1.11088 h 5.40428 v -1.11088 h -2.73216 z m 4.14329,8.15146 v -0.91573 h 3.6629 v 0.91573 z m 3.6629,-2.74718 v 0.8857 h -3.6629 v -0.8857 z m 1.30604,-1.02081 h -6.24495 v 7.47593 h 1.27601 v -2.74718 h 3.6629 v 1.36608 c 0,0.18015 -0.0601,0.22518 -0.2552,0.24019 -0.18014,0 -0.79563,0.015 -1.41112,-0.015 0.15012,0.31525 0.31525,0.79563 0.36029,1.1259 0.94575,0 1.62128,0 2.05663,-0.19516 0.42033,-0.18014 0.55544,-0.5104 0.55544,-1.1409 z m -2.59706,-1.78641 v -0.81065 h 2.92732 v -0.97577 h -2.92732 v -0.75059 h 3.1525 v -1.03583 h -3.1525 v -0.91572 h -1.32105 v 0.91572 h -3.04741 v 1.03583 h 3.04741 v 0.75059 h -2.67212 v 0.97577 h 2.67212 v 0.81065 h -3.42271 v 1.03582 h 8.1965 v -1.03582 z m -23.31345,9.90785 c 1.71135,-0.54043 2.76219,-1.84646 2.76219,-3.49777 0,-1.14091 -0.4954,-1.87649 -1.44115,-1.87649 -0.69054,0 -1.27601,0.43535 -1.27601,1.20095 0,0.76561 0.58547,1.18594 1.261,1.18594 0.0751,0 0.15012,0 0.21017,-0.015 -0.0751,0.91573 -0.7506,1.60627 -1.90651,2.02661 z m -12.30973,-7.01056 h 2.62708 v -1.35107 h -6.51517 v 1.35107 h 2.49198 v 4.02319 c -1.1409,0.21017 -2.17673,0.40532 -2.98737,0.54043 l 0.40532,1.41112 c 1.92153,-0.42033 4.60866,-1.0058 7.10063,-1.57625 l -0.10508,-1.261 c -1.0058,0.21017 -2.02661,0.42033 -3.01739,0.60048 z m 5.34423,-6.54518 c 0.73559,0.52541 1.60628,1.30603 2.02661,1.83145 l 0.97577,-0.87069 c -0.43534,-0.51041 -1.35107,-1.24599 -2.08665,-1.72637 z m 3.5278,3.19753 v -1.36608 h -4.30842 c -0.03,-0.84067 -0.045,-1.72637 -0.03,-2.59706 h -1.50119 c 0,0.87069 0.03,1.74138 0.06,2.59706 h -7.52096 v 1.36608 h 7.61103 c 0.3753,5.40428 1.56124,9.77275 4.0382,9.77275 1.24599,0 1.74138,-0.73559 1.98157,-3.43773 -0.39031,-0.13511 -0.91572,-0.46537 -1.23097,-0.79563 -0.0901,1.95155 -0.27022,2.76219 -0.6305,2.76219 -1.30604,0 -2.35687,-3.57283 -2.68713,-8.30158 z m -16.90337,0.18014 h -4.05321 v -2.43192 h 4.05321 z m 1.35107,-3.63288 h -6.69531 v 4.83383 h 6.69531 z m -7.23574,7.62605 c -0.27021,-0.34528 -1.54622,-1.65131 -1.98157,-2.02661 V 211.067 h 1.7564 v -1.32104 h -1.7564 v -2.32685 c 0.67554,-0.18014 1.32105,-0.37529 1.86148,-0.58546 l -0.96076,-1.06585 c -1.12589,0.4954 -3.01739,0.93074 -4.68372,1.20096 0.16514,0.30023 0.34528,0.7656 0.40533,1.08085 0.64551,-0.0901 1.33606,-0.19515 2.0266,-0.34527 v 2.04162 h -2.31183 v 1.32104 h 2.13169 c -0.57045,1.59127 -1.53121,3.37768 -2.41692,4.39849 0.21017,0.33026 0.54043,0.90072 0.67554,1.29102 0.67553,-0.84066 1.36608,-2.13169 1.92152,-3.49777 v 6.06481 h 1.35107 v -6.1849 c 0.45036,0.61548 0.94575,1.32104 1.17093,1.74138 z m 4.51859,3.96314 v -1.66632 h 2.83725 v -1.20095 h -2.83725 v -1.54623 h 3.18252 v -1.21596 h -7.70111 v 1.21596 h 3.13749 v 1.54623 h -2.7772 v 1.20095 h 2.7772 v 1.66632 h -3.75297 v 1.24599 h 8.64685 v -1.24599 z m -17.60893,-4.17331 v -2.22176 h 3.63288 v 2.22176 z m -4.71374,0 c 0.045,-0.55544 0.06,-1.11088 0.06,-1.62128 v -0.60048 h 3.25758 v 2.22176 z m 3.31763,-5.64447 v 2.11668 h -3.25758 v -2.11668 z m 5.02899,2.11668 h -3.63288 v -2.11668 h 3.63288 z m 1.3961,-3.45274 h -11.06377 v 5.34423 c 0,2.11668 -0.15012,4.77379 -1.78641,6.59023 0.31525,0.16513 0.8857,0.64551 1.09587,0.91572 1.09586,-1.21596 1.63629,-2.89729 1.87648,-4.5486 h 3.45274 v 4.2934 h 1.39611 v -4.2934 h 3.63288 v 2.68713 c 0,0.28523 -0.10509,0.3753 -0.3753,0.3753 -0.28523,0 -1.27601,0.015 -2.23677,-0.03 0.18014,0.36029 0.40532,0.97578 0.46536,1.35107 1.3811,0.015 2.25179,-0.015 2.80723,-0.24019 0.54043,-0.21016 0.73558,-0.6305 0.73558,-1.44114 z m -24.58946,12.44486 c 0.85568,-0.69054 1.35107,-1.83145 1.68133,-2.88228 l -1.12589,-0.39031 c -0.30024,0.94575 -0.85568,1.98157 -1.62129,2.61207 z m 1.56124,-11.18386 c -0.55544,1.17093 -1.45616,2.35687 -2.41692,3.21254 v -3.22755 h 4.81882 c -0.49539,1.15591 -1.29102,2.34185 -2.1467,3.16751 v -1.261 c 0.34527,-0.4954 0.66052,-1.02081 0.90071,-1.56124 z m 3.06242,1.32104 c 0.19516,-0.33026 0.36029,-0.69054 0.51041,-1.03582 l -1.06585,-0.30023 h 2.70215 l -0.84067,0.33026 c 0.24019,0.30024 0.49539,0.67553 0.67554,1.00579 z m 1.81644,1.54623 h -2.10166 v -0.67553 h 2.10166 z m 0,1.45615 h -2.10166 v -0.70555 h 2.10166 z m 0,1.48618 h -2.10166 v -0.73558 h 2.10166 z m -3.25758,1.35107 h 0.99079 l -0.45036,0.42034 c 0.85568,0.42033 1.87649,1.08085 2.38689,1.54622 l 0.84067,-0.84066 c -0.52542,-0.46537 -1.57625,-1.08086 -2.41692,-1.45616 l -0.19515,0.18015 v -0.30024 h 5.91469 v -0.90072 h -2.65711 v -0.73558 h 2.07164 v -0.7506 h -2.07164 v -0.70555 h 2.04162 v -0.7506 h -2.04162 v -0.67553 h 2.44694 v -0.8707 h -2.61207 l 0.36029,-0.16513 c -0.16514,-0.33026 -0.4954,-0.81064 -0.81065,-1.17092 h 3.51279 v -1.15592 h -5.2992 c -0.22518,-0.43535 -0.52542,-0.96076 -0.84067,-1.36608 l -1.21596,0.36028 c 0.21016,0.30024 0.40532,0.64551 0.58546,1.0058 h -5.85464 v 4.4135 c 0,2.20675 -0.0901,5.2992 -1.17093,7.46091 0.28523,0.13511 0.84067,0.57045 1.06585,0.81065 1.09586,-2.17673 1.35107,-5.40429 1.38109,-7.74615 0.21017,0.19516 0.43535,0.45036 0.55544,0.60048 0.31525,-0.28523 0.61549,-0.58546 0.93074,-0.93074 v 3.72295 h 1.18594 v -3.72295 c 0.27021,0.21017 0.61549,0.4954 0.76561,0.64551 0.19515,-0.18014 0.40532,-0.40532 0.60047,-0.64551 z m 1.18594,3.12248 c -0.57045,0 -0.67553,-0.045 -0.67553,-0.39031 v -1.87649 h -1.27601 v 1.8915 c 0,1.17093 0.34527,1.50119 1.78641,1.50119 h 2.20675 c 1.08086,0 1.45615,-0.36028 1.59126,-1.87649 -0.33026,-0.0751 -0.85568,-0.2552 -1.12589,-0.45035 -0.045,1.06584 -0.13511,1.20095 -0.60048,1.20095 z m 3.07744,-2.02661 c 0.81064,0.8857 1.66632,2.10167 1.99658,2.88229 l 1.11088,-0.55544 c -0.36028,-0.81065 -1.26099,-1.99659 -2.08665,-2.83725 z m -14.27629,-8.06139 h -4.47354 v -1.00579 h 4.47354 z m 0,1.96656 h -4.47354 v -1.0058 h 4.47354 z m 1.41112,-3.99316 h -7.23573 v 5.02898 h 7.23573 z m -9.68267,-0.40533 c -0.6305,1.02081 -1.95155,2.23678 -3.12248,2.98737 0.22518,0.28523 0.57045,0.84067 0.72057,1.15592 1.35107,-0.8857 2.82224,-2.29682 3.75298,-3.61787 z m 0.33026,3.25759 c -0.8857,1.50119 -2.32685,3.00238 -3.66291,3.94813 0.22518,0.34527 0.58547,1.09587 0.70556,1.41112 0.51041,-0.42034 1.06585,-0.90072 1.57625,-1.45616 v 6.5602 h 1.35107 v -8.10642 c 0.46537,-0.61549 0.91573,-1.24599 1.261,-1.86148 z m 2.07164,7.23573 c 0.66052,0.64551 1.44114,1.54623 1.78642,2.11668 l 1.05083,-0.75059 c -0.3753,-0.57046 -1.18594,-1.42613 -1.84646,-2.02661 z m 8.16647,-1.95154 h -2.1467 v -1.09587 h 1.86148 v -1.15592 h -8.67688 v 1.15592 h 5.4193 v 1.09587 h -5.77959 v 1.20095 h 5.77959 v 2.50699 c 0,0.18014 -0.06,0.22517 -0.28523,0.24019 -0.21017,0.015 -0.93074,0.015 -1.68133,-0.015 0.18014,0.36029 0.37529,0.88571 0.45035,1.261 1.06585,0 1.78642,-0.015 2.28181,-0.22518 0.4954,-0.19515 0.6305,-0.54042 0.6305,-1.23097 v -2.53701 h 2.1467 z m -26.22576,-0.51041 h 2.14671 v 1.74138 c -0.7506,0.10508 -1.47117,0.22518 -2.14671,0.31525 z m 2.14671,-6.15488 v 1.83145 h -2.14671 v -1.83145 z m -2.14671,3.01739 h 2.14671 v 1.93654 h -2.14671 z m 4.80381,5.65949 -0.0751,-1.18594 -1.21596,0.19515 v -7.68609 h 1.0058 v -1.261 h -6.77037 v 1.261 h 0.91572 v 8.42168 c -0.37529,0.045 -0.75059,0.0901 -1.08085,0.13511 l 0.30024,1.36608 c 1.20095,-0.21017 2.70214,-0.48038 4.26338,-0.7506 v 2.67212 h 1.36608 v -2.92732 z m 4.68371,-7.65607 c -0.33026,1.98157 -0.85567,3.75298 -1.57625,5.26918 -0.66052,-1.54623 -1.12589,-3.34766 -1.44114,-5.26918 z m 0.58547,-1.36608 -0.24019,0.045 h -5.23916 v 1.32105 h 0.6305 c 0.40533,2.55202 1.0058,4.80381 1.92153,6.6803 -0.85568,1.35107 -1.86148,2.41691 -3.00238,3.10746 0.31525,0.24019 0.69055,0.72057 0.90071,1.05083 1.06585,-0.73558 2.0116,-1.66632 2.83725,-2.83725 0.70556,1.11088 1.57625,2.02661 2.62708,2.71716 0.22518,-0.34528 0.66053,-0.82566 0.96076,-1.08086 -1.1409,-0.67553 -2.05663,-1.68133 -2.79221,-2.8973 1.11088,-2.04161 1.8915,-4.63867 2.2668,-7.86623 z" />
    </g>
  </g>
</svg>
