<?xml version="1.0" encoding="UTF-8" standalone="no"?>
<svg
   width="240"
   height="80"
   version="1.1"
   id="svg11"
   sodipodi:docname="download-i.svg"
   inkscape:version="1.3 (0e150ed6c4, 2023-07-21)"
   xmlns:inkscape="http://www.inkscape.org/namespaces/inkscape"
   xmlns:sodipodi="http://sodipodi.sourceforge.net/DTD/sodipodi-0.dtd"
   xmlns="http://www.w3.org/2000/svg"
   xmlns:svg="http://www.w3.org/2000/svg">
  <defs
     id="defs11">
    <inkscape:path-effect
       effect="fillet_chamfer"
       id="path-effect11"
       is_visible="true"
       lpeversion="1"
       nodesatellites_param="F,0,1,1,0,4.5638325,0,1 @ F,0,0,1,0,4.5638325,0,1 @ F,0,1,1,0,4.5638325,0,1"
       radius="0"
       unit="px"
       method="auto"
       mode="F"
       chamfer_steps="1"
       flexible="false"
       use_knot_distance="true"
       apply_no_radius="true"
       apply_with_radius="true"
       only_selected="false"
       hide_knots="false" />
  </defs>
  <sodipodi:namedview
     id="namedview11"
     pagecolor="#505050"
     bordercolor="#ffffff"
     borderopacity="1"
     inkscape:showpageshadow="0"
     inkscape:pageopacity="0"
     inkscape:pagecheckerboard="1"
     inkscape:deskcolor="#d1d1d1"
     inkscape:current-layer="svg11" />
  <g
     transform="matrix(0.80064692,0,0,0.79808701,-349.19351,-144.30405)"
     id="g11"
     style="stroke-width:1.25099">
    <rect
       ry="16"
       rx="16"
       y="181.994"
       x="437.31699"
       height="97.876999"
       width="297.39999"
       style="vector-effect:none;fill:#ffffff;fill-opacity:1;stroke:#000000;stroke-width:2.35846;stroke-linecap:butt;stroke-linejoin:miter;stroke-miterlimit:4;stroke-dasharray:none;stroke-dashoffset:0;stroke-opacity:1;marker:none;paint-order:normal"
       id="rect1" />
    <g
       aria-label="Download on"
       style="font-weight:500;font-size:16.6989px;line-height:1.25;font-family:Inter;-inkscape-font-specification:'Inter, Medium';letter-spacing:0;word-spacing:0;stroke-width:0.655837"
       id="g1">
      <path
         d="m 552.644,218.947 c 3.7,0 5.84,-2.295 5.84,-6.09 0,-3.777 -2.14,-6.054 -5.716,-6.054 h -4.056 v 12.144 z m -2.1,-1.6 v -8.943 h 2.111 c 2.657,0 4.027,1.589 4.027,4.453 0,2.876 -1.37,4.49 -4.14,4.49 z m 16.66,1.784 c 2.567,0 4.245,-1.88 4.245,-4.697 0,-2.834 -1.678,-4.714 -4.245,-4.714 -2.568,0 -4.246,1.88 -4.246,4.714 0,2.817 1.678,4.697 4.246,4.697 z m 0.006,-1.488 c -1.679,0 -2.461,-1.465 -2.461,-3.214 0,-1.744 0.782,-3.226 2.46,-3.226 1.667,0 2.45,1.482 2.45,3.226 0,1.749 -0.783,3.214 -2.45,3.214 z m 10.657,1.304 h 1.803 l 1.85,-6.576 h 0.137 l 1.85,6.576 h 1.809 l 2.674,-9.108 h -1.832 l -1.774,6.66 h -0.088 l -1.78,-6.66 h -1.832 l -1.79,6.689 h -0.09 l -1.785,-6.69 h -1.832 z m 16.322,-5.407 c 0,-1.454 0.89,-2.284 2.123,-2.284 1.203,0 1.933,0.789 1.933,2.111 v 5.58 h 1.773 v -5.793 c 0,-2.254 -1.24,-3.434 -3.102,-3.434 -1.37,0 -2.265,0.635 -2.686,1.601 h -0.113 v -1.482 h -1.702 v 9.108 h 1.774 z m 12.721,-6.737 h -1.773 v 12.144 h 1.773 z m 8.968,12.328 c 2.568,0 4.246,-1.88 4.246,-4.697 0,-2.834 -1.678,-4.714 -4.246,-4.714 -2.568,0 -4.246,1.88 -4.246,4.714 0,2.817 1.678,4.697 4.246,4.697 z m 0.006,-1.488 c -1.678,0 -2.46,-1.465 -2.46,-3.214 0,-1.744 0.782,-3.226 2.46,-3.226 1.666,0 2.45,1.482 2.45,3.226 0,1.749 -0.784,3.214 -2.45,3.214 z m 11.613,1.506 c 1.506,0 2.354,-0.765 2.692,-1.447 h 0.071 v 1.245 h 1.732 V 212.9 c 0,-2.651 -2.088,-3.179 -3.534,-3.179 -1.649,0 -3.167,0.664 -3.76,2.325 l 1.666,0.38 c 0.261,-0.647 0.925,-1.27 2.117,-1.27 1.145,0 1.732,0.6 1.732,1.63 v 0.042 c 0,0.647 -0.664,0.635 -2.301,0.825 -1.726,0.201 -3.493,0.652 -3.493,2.722 0,1.79 1.346,2.775 3.078,2.775 z m 0.385,-1.423 c -1.002,0 -1.725,-0.451 -1.725,-1.329 0,-0.948 0.842,-1.286 1.868,-1.423 0.575,-0.077 1.939,-0.231 2.194,-0.486 v 1.174 c 0,1.08 -0.86,2.064 -2.337,2.064 z m 12.627,1.399 c 1.66,0 2.313,-1.014 2.633,-1.595 h 0.148 v 1.417 h 1.732 v -12.144 h -1.773 v 4.512 h -0.107 c -0.32,-0.563 -0.925,-1.595 -2.621,-1.595 -2.2,0 -3.82,1.738 -3.82,4.69 0,2.948 1.596,4.715 3.808,4.715 z m 0.391,-1.512 c -1.583,0 -2.407,-1.394 -2.407,-3.22 0,-1.809 0.806,-3.167 2.407,-3.167 1.548,0 2.378,1.263 2.378,3.167 0,1.915 -0.848,3.22 -2.378,3.22 z m 20.403,1.518 c 2.568,0 4.246,-1.88 4.246,-4.697 0,-2.834 -1.678,-4.714 -4.246,-4.714 -2.568,0 -4.246,1.88 -4.246,4.714 0,2.817 1.678,4.697 4.246,4.697 z m 0.006,-1.488 c -1.678,0 -2.46,-1.465 -2.46,-3.214 0,-1.744 0.782,-3.226 2.46,-3.226 1.666,0 2.45,1.482 2.45,3.226 0,1.749 -0.784,3.214 -2.45,3.214 z m 10.735,-4.103 c 0,-1.454 0.89,-2.284 2.123,-2.284 1.204,0 1.933,0.789 1.933,2.111 v 5.58 h 1.773 v -5.793 c 0,-2.254 -1.239,-3.434 -3.101,-3.434 -1.37,0 -2.265,0.635 -2.686,1.601 h -0.113 v -1.482 h -1.702 v 9.108 h 1.773 z"
         style="letter-spacing:2.74737px;stroke-width:0.655837"
         id="path1" />
    </g>
    <g
       aria-label="Flathub"
       style="font-weight:600;font-size:36.6564px;line-height:125%;font-family:Inter;-inkscape-font-specification:'Inter, Semi-Bold';text-align:center;letter-spacing:0;word-spacing:0;baseline-shift:baseline;text-anchor:middle;display:inline;overflow:visible;stroke-width:1.70189;marker:none;marker-start:none;marker-mid:none;marker-end:none;enable-background:accumulate"
       id="g8">
      <path
         d="m 548.712,252.946 h 4.83 v -11.325 h 11.077 v -4.048 h -11.078 v -7.237 h 12.25 v -4.049 h -17.079 z"
         id="path2"
         style="stroke-width:1.70189" />
      <path
         d="m 574.681,226.287 h -4.712 v 26.66 h 4.712 z"
         id="path3"
         style="stroke-width:1.70189" />
      <path
         d="m 585.277,253.35 c 3.137,0 5.012,-1.471 5.871,-3.15 h 0.156 v 2.746 h 4.53 v -13.381 c 0,-5.285 -4.308,-6.873 -8.122,-6.873 -4.205,0 -7.433,1.874 -8.475,5.519 l 4.4,0.625 c 0.469,-1.367 1.797,-2.539 4.1,-2.539 2.187,0 3.385,1.12 3.385,3.086 v 0.078 c 0,1.353 -1.419,1.418 -4.946,1.796 -3.88,0.417 -7.59,1.575 -7.59,6.079 0,3.931 2.877,6.014 6.691,6.014 z m 1.224,-3.463 c -1.966,0 -3.372,-0.898 -3.372,-2.63 0,-1.808 1.576,-2.563 3.684,-2.863 1.237,-0.17 3.71,-0.481 4.322,-0.976 v 2.356 c 0,2.226 -1.796,4.113 -4.634,4.113 z"
         id="path4"
         style="stroke-width:1.70189" />
      <path
         d="m 610.57,232.952 h -3.945 v -4.79 h -4.712 v 4.79 h -2.837 v 3.645 h 2.837 v 11.117 c -0.026,3.761 2.708,5.61 6.249,5.506 1.34,-0.04 2.265,-0.3 2.772,-0.469 l -0.794,-3.684 c -0.26,0.065 -0.794,0.183 -1.38,0.183 -1.184,0 -2.135,-0.417 -2.135,-2.318 v -10.335 h 3.945 z"
         id="path5"
         style="stroke-width:1.70189" />
      <path
         d="m 619.643,241.231 c 0,-2.89 1.796,-4.556 4.321,-4.556 2.474,0 3.932,1.575 3.932,4.27 v 12.001 h 4.712 v -12.73 c 0,-4.83 -2.734,-7.524 -6.886,-7.524 -3.072,0 -5.025,1.393 -5.95,3.658 h -0.233 v -10.063 h -4.608 v 26.66 h 4.712 z"
         id="path6"
         style="stroke-width:1.70189" />
      <path
         d="m 650.142,244.537 c 0,3.046 -2.174,4.556 -4.257,4.556 -2.265,0 -3.775,-1.6 -3.775,-4.14 v -12.001 h -4.712 v 12.73 c 0,4.804 2.734,7.525 6.665,7.525 2.994,0 5.103,-1.575 6.014,-3.814 h 0.208 v 3.553 h 4.57 v -19.994 h -4.713 z"
         id="path7"
         style="stroke-width:1.70189" />
      <path
         d="m 659.905,252.946 h 4.634 v -3.15 h 0.273 c 0.742,1.458 2.291,3.502 5.728,3.502 4.712,0 8.24,-3.736 8.24,-10.323 0,-6.665 -3.632,-10.283 -8.253,-10.283 -3.528,0 -4.999,2.121 -5.715,3.566 h -0.195 v -9.97 h -4.712 z m 4.621,-9.997 c 0,-3.879 1.666,-6.391 4.7,-6.391 3.136,0 4.75,2.668 4.75,6.391 0,3.75 -1.64,6.483 -4.75,6.483 -3.008,0 -4.7,-2.604 -4.7,-6.483 z"
         id="path8"
         style="stroke-width:1.70189" />
    </g>
    <g
       style="fill:#000000;stroke-width:0.897712"
       transform="matrix(1.24662,0,0,1.24662,281.22,98.198)"
       id="g10">
      <circle
         style="fill:#000000;stroke-width:0.237518"
         cx="166.688"
         cy="95.647003"
         r="9.0480003"
         id="circle8" />
      <rect
         style="fill:#000000;stroke-width:0.237518"
         width="16.412001"
         height="16.412001"
         x="158.414"
         y="107.798"
         rx="4.3769999"
         ry="4.3769999"
         id="rect8" />
      <path
         style="fill:#000000;stroke-width:0.223702"
         transform="matrix(0.9259024,0.53457,0.53457,-0.9259024,99.82665,110.69315)"
         d="M 69.183167,58.833 H 57.816832 a 2.6349801,2.6349801 59.999528 0 1 -2.281981,-3.952432 l 5.683298,-9.844136 a 2.6348297,2.6348297 0 0 1 4.563702,0 l 5.683298,9.844136 A 2.6349801,2.6349801 120.00047 0 1 69.183167,58.833 Z"
         id="path9"
         sodipodi:nodetypes="cccc"
         inkscape:path-effect="#path-effect11"
         inkscape:original-d="M 73.747,58.833 H 53.253 L 63.5,41.084 Z" />
      <path
         style="fill:#000000;stroke-width:2.37518"
         d="m 194.992,116.11 c 0,0.88 -0.708,1.587 -1.588,1.587 h -12.7 c -0.88,0 -1.587,-0.708 -1.587,-1.587 0,-0.88 0.708,-1.588 1.587,-1.588 h 12.7 c 0.88,0 1.588,0.708 1.588,1.588 z m -7.938,-7.938 c 0.88,0 1.588,0.708 1.588,1.588 v 12.7 c 0,0.88 -0.708,1.587 -1.588,1.587 -0.88,0 -1.587,-0.708 -1.587,-1.587 v -12.7 c 0,-0.88 0.708,-1.588 1.587,-1.588 z"
         id="path10" />
    </g>
  </g>
</svg>
