<?xml version="1.0" encoding="UTF-8" standalone="no"?>
<svg
   width="240"
   height="80"
   version="1.1"
   id="svg11"
   sodipodi:docname="download.svg"
   inkscape:version="1.3 (0e150ed6c4, 2023-07-21)"
   xmlns:inkscape="http://www.inkscape.org/namespaces/inkscape"
   xmlns:sodipodi="http://sodipodi.sourceforge.net/DTD/sodipodi-0.dtd"
   xmlns="http://www.w3.org/2000/svg"
   xmlns:svg="http://www.w3.org/2000/svg">
  <defs
     id="defs11" />
  <sodipodi:namedview
     id="namedview11"
     pagecolor="#505050"
     bordercolor="#ffffff"
     borderopacity="1"
     inkscape:showpageshadow="0"
     inkscape:pageopacity="0"
     inkscape:pagecheckerboard="1"
     inkscape:deskcolor="#d1d1d1"
     inkscape:current-layer="svg11" />
  <g
     transform="matrix(0.80142259,0,0,0.79887263,-278.78814,-120.98753)"
     id="g11"
     style="stroke-width:1.24977">
    <rect
       style="vector-effect:none;fill:#000000;fill-opacity:1;stroke:#888a85;stroke-width:2.35389;stroke-linecap:butt;stroke-linejoin:miter;stroke-miterlimit:4;stroke-dasharray:none;stroke-dashoffset:0;stroke-opacity:1;marker:none;paint-order:normal"
       width="297.117"
       height="97.782997"
       x="349.04199"
       y="152.627"
       rx="16"
       ry="16"
       id="rect1" />
    <g
       aria-label="Download on"
       style="font-weight:500;font-size:16.6989px;line-height:1.25;font-family:Inter;-inkscape-font-specification:'Inter, Medium';letter-spacing:0;word-spacing:0;fill:#ffffff;stroke-width:0.655198"
       id="g1">
      <path
         d="m 464.084,188.646 c 3.7,0 5.841,-2.295 5.841,-6.09 0,-3.778 -2.14,-6.055 -5.716,-6.055 h -4.056 v 12.145 z m -2.099,-1.601 v -8.943 h 2.111 c 2.657,0 4.027,1.59 4.027,4.454 0,2.876 -1.37,4.489 -4.14,4.489 z m 16.659,1.785 c 2.568,0 4.246,-1.88 4.246,-4.697 0,-2.834 -1.678,-4.714 -4.246,-4.714 -2.567,0 -4.246,1.88 -4.246,4.714 0,2.817 1.679,4.697 4.246,4.697 z m 0.006,-1.489 c -1.678,0 -2.46,-1.464 -2.46,-3.214 0,-1.743 0.782,-3.226 2.46,-3.226 1.667,0 2.45,1.483 2.45,3.226 0,1.75 -0.783,3.214 -2.45,3.214 z m 10.658,1.305 h 1.803 l 1.85,-6.576 h 0.136 l 1.85,6.576 h 1.81 l 2.674,-9.109 h -1.833 l -1.773,6.66 h -0.089 l -1.779,-6.66 h -1.832 l -1.791,6.69 h -0.089 l -1.785,-6.69 h -1.832 z m 16.322,-5.408 c 0,-1.453 0.889,-2.283 2.122,-2.283 1.204,0 1.933,0.788 1.933,2.11 v 5.58 h 1.773 v -5.793 c 0,-2.253 -1.239,-3.433 -3.1,-3.433 -1.37,0 -2.266,0.634 -2.687,1.6 h -0.113 v -1.482 h -1.702 v 9.109 h 1.773 z m 12.72,-6.737 h -1.772 v 12.145 h 1.773 z m 8.969,12.329 c 2.568,0 4.246,-1.88 4.246,-4.697 0,-2.834 -1.678,-4.714 -4.246,-4.714 -2.568,0 -4.246,1.88 -4.246,4.714 0,2.817 1.678,4.697 4.246,4.697 z m 0.006,-1.489 c -1.678,0 -2.461,-1.464 -2.461,-3.214 0,-1.743 0.783,-3.226 2.46,-3.226 1.667,0 2.45,1.483 2.45,3.226 0,1.75 -0.783,3.214 -2.45,3.214 z m 11.612,1.507 c 1.507,0 2.355,-0.765 2.693,-1.447 h 0.07 v 1.245 h 1.732 v -6.049 c 0,-2.65 -2.087,-3.178 -3.534,-3.178 -1.648,0 -3.166,0.664 -3.76,2.324 l 1.667,0.38 c 0.26,-0.646 0.925,-1.27 2.117,-1.27 1.144,0 1.731,0.6 1.731,1.632 v 0.041 c 0,0.647 -0.664,0.635 -2.3,0.824 -1.726,0.202 -3.493,0.653 -3.493,2.722 0,1.791 1.346,2.776 3.078,2.776 z m 0.386,-1.424 c -1.002,0 -1.726,-0.45 -1.726,-1.328 0,-0.949 0.842,-1.287 1.868,-1.423 0.575,-0.077 1.94,-0.231 2.194,-0.486 v 1.174 c 0,1.079 -0.86,2.063 -2.336,2.063 z m 12.627,1.4 c 1.66,0 2.312,-1.014 2.633,-1.595 h 0.148 v 1.417 h 1.731 V 176.5 h -1.773 v 4.513 h -0.106 c -0.32,-0.563 -0.925,-1.595 -2.621,-1.595 -2.2,0 -3.82,1.737 -3.82,4.69 0,2.948 1.596,4.715 3.808,4.715 z m 0.391,-1.512 c -1.583,0 -2.408,-1.394 -2.408,-3.22 0,-1.809 0.807,-3.167 2.408,-3.167 1.548,0 2.378,1.263 2.378,3.167 0,1.915 -0.848,3.22 -2.378,3.22 z m 20.403,1.518 c 2.568,0 4.246,-1.88 4.246,-4.697 0,-2.834 -1.678,-4.714 -4.246,-4.714 -2.568,0 -4.246,1.88 -4.246,4.714 0,2.817 1.678,4.697 4.246,4.697 z m 0.006,-1.489 c -1.678,0 -2.461,-1.464 -2.461,-3.214 0,-1.743 0.783,-3.226 2.46,-3.226 1.667,0 2.45,1.483 2.45,3.226 0,1.75 -0.783,3.214 -2.45,3.214 z m 10.735,-4.103 c 0,-1.453 0.89,-2.283 2.123,-2.283 1.204,0 1.933,0.788 1.933,2.11 v 5.58 h 1.773 v -5.793 c 0,-2.253 -1.24,-3.433 -3.101,-3.433 -1.37,0 -2.266,0.634 -2.687,1.6 h -0.112 v -1.482 h -1.702 v 9.109 h 1.773 z"
         style="letter-spacing:2.74737px;stroke-width:0.655198"
         id="path1" />
    </g>
    <g
       aria-label="Flathub"
       style="font-weight:600;font-size:36.6564px;line-height:125%;font-family:Inter;-inkscape-font-specification:'Inter, Semi-Bold';text-align:center;letter-spacing:0;word-spacing:0;baseline-shift:baseline;text-anchor:middle;display:inline;overflow:visible;fill:#ffffff;stroke-width:1.70023;marker:none;marker-start:none;marker-mid:none;marker-end:none;enable-background:accumulate"
       id="g8">
      <path
         d="m 460.153,222.645 h 4.83 V 211.32 h 11.077 v -4.048 h -11.078 v -7.238 h 12.25 v -4.048 h -17.08 z"
         id="path2"
         style="stroke-width:1.70023" />
      <path
         d="m 486.122,195.986 h -4.712 v 26.66 h 4.712 z"
         id="path3"
         style="stroke-width:1.70023" />
      <path
         d="m 496.718,223.049 c 3.137,0 5.012,-1.471 5.87,-3.15 h 0.157 v 2.746 h 4.53 v -13.382 c 0,-5.285 -4.309,-6.873 -8.123,-6.873 -4.204,0 -7.433,1.875 -8.474,5.52 l 4.4,0.625 c 0.468,-1.367 1.796,-2.539 4.1,-2.539 2.187,0 3.385,1.12 3.385,3.085 v 0.078 c 0,1.354 -1.42,1.42 -4.947,1.797 -3.879,0.416 -7.589,1.575 -7.589,6.079 0,3.93 2.877,6.014 6.691,6.014 z m 1.224,-3.463 c -1.966,0 -3.372,-0.898 -3.372,-2.63 0,-1.809 1.575,-2.564 3.684,-2.863 1.237,-0.17 3.71,-0.482 4.322,-0.976 v 2.356 c 0,2.226 -1.797,4.113 -4.634,4.113 z"
         id="path4"
         style="stroke-width:1.70023" />
      <path
         d="m 522.01,202.65 h -3.944 v -4.79 h -4.712 v 4.79 h -2.838 v 3.646 h 2.838 v 11.116 c -0.026,3.762 2.708,5.61 6.248,5.506 1.341,-0.039 2.265,-0.299 2.773,-0.468 l -0.794,-3.684 c -0.26,0.065 -0.794,0.182 -1.38,0.182 -1.185,0 -2.135,-0.416 -2.135,-2.317 v -10.335 h 3.944 z"
         id="path5"
         style="stroke-width:1.70023" />
      <path
         d="m 531.083,210.93 c 0,-2.89 1.797,-4.556 4.322,-4.556 2.473,0 3.931,1.575 3.931,4.27 v 12.001 h 4.713 v -12.73 c 0,-4.83 -2.734,-7.525 -6.887,-7.525 -3.072,0 -5.024,1.393 -5.948,3.658 h -0.235 v -10.062 h -4.608 v 26.66 h 4.712 z"
         id="path6"
         style="stroke-width:1.70023" />
      <path
         d="m 561.583,214.236 c 0,3.046 -2.174,4.556 -4.257,4.556 -2.265,0 -3.775,-1.601 -3.775,-4.14 v -12.001 h -4.712 v 12.73 c 0,4.804 2.733,7.524 6.665,7.524 2.994,0 5.102,-1.575 6.014,-3.814 h 0.208 v 3.554 h 4.569 v -19.994 h -4.712 z"
         id="path7"
         style="stroke-width:1.70023" />
      <path
         d="m 571.346,222.645 h 4.634 v -3.15 h 0.273 c 0.742,1.458 2.291,3.502 5.728,3.502 4.712,0 8.24,-3.736 8.24,-10.323 0,-6.665 -3.632,-10.284 -8.253,-10.284 -3.528,0 -4.999,2.122 -5.715,3.567 h -0.195 v -9.971 h -4.712 z m 4.62,-9.997 c 0,-3.88 1.667,-6.392 4.7,-6.392 3.137,0 4.751,2.669 4.751,6.392 0,3.749 -1.64,6.482 -4.751,6.482 -3.007,0 -4.7,-2.603 -4.7,-6.482 z"
         id="path8"
         style="stroke-width:1.70023" />
    </g>
    <g
       style="fill:#ffffff;stroke-width:0.896836"
       transform="matrix(1.24662,0,0,1.24662,192.661,67.896)"
       id="g10">
      <circle
         style="fill:#ffffff;stroke-width:0.237287"
         cx="166.688"
         cy="95.647003"
         r="9.0480003"
         id="circle8" />
      <rect
         style="fill:#ffffff;stroke-width:0.237287"
         width="16.412001"
         height="16.412001"
         x="158.414"
         y="107.798"
         rx="4.3769999"
         ry="4.3769999"
         id="rect8" />
      <path
         style="fill:#ffffff;stroke-width:0.223484"
         d="M 69.514,58.833 H 57.486 a 2.444,2.444 60 0 1 -2.117,-3.666 l 0.89,-1.542 5.124,-8.875 a 2.444,2.444 0 0 1 4.234,0 l 0.89,1.542 5.124,8.875 a 2.444,2.444 120 0 1 -2.117,3.666 z"
         transform="matrix(0.9259024,0.53457,0.53457,-0.9259024,99.82665,110.69315)"
         id="path9" />
      <path
         style="fill:#ffffff;stroke-width:2.37287"
         d="m 194.992,116.11 c 0,0.88 -0.708,1.587 -1.588,1.587 h -12.7 c -0.88,0 -1.587,-0.708 -1.587,-1.587 0,-0.88 0.708,-1.588 1.587,-1.588 h 12.7 c 0.88,0 1.588,0.708 1.588,1.588 z m -7.938,-7.938 c 0.88,0 1.588,0.708 1.588,1.588 v 12.7 c 0,0.88 -0.708,1.587 -1.588,1.587 -0.88,0 -1.587,-0.708 -1.587,-1.587 v -12.7 c 0,-0.88 0.708,-1.588 1.587,-1.588 z"
         id="path10" />
    </g>
  </g>
</svg>
