<?xml version="1.0" encoding="UTF-8" standalone="no"?>
<svg
   inkscape:version="1.3 (0e150ed6c4, 2023-07-21)"
   id="svg8"
   version="1.1"
   viewBox="0 0 200 200"
   height="200"
   width="200"
   sodipodi:docname="github-infra2-200x200.svg"
   inkscape:export-filename="../github-infra2-200x200.png"
   inkscape:export-xdpi="96"
   inkscape:export-ydpi="96"
   xmlns:inkscape="http://www.inkscape.org/namespaces/inkscape"
   xmlns:sodipodi="http://sodipodi.sourceforge.net/DTD/sodipodi-0.dtd"
   xmlns="http://www.w3.org/2000/svg"
   xmlns:svg="http://www.w3.org/2000/svg"
   xmlns:rdf="http://www.w3.org/1999/02/22-rdf-syntax-ns#"
   xmlns:cc="http://creativecommons.org/ns#"
   xmlns:dc="http://purl.org/dc/elements/1.1/">
  <defs
     id="defs2">
    <inkscape:path-effect
       effect="fillet_chamfer"
       id="path-effect7"
       is_visible="true"
       lpeversion="1"
       nodesatellites_param="F,0,1,1,0,5.4481228,0,1 @ F,0,1,1,0,5.4481228,0,1 @ F,0,1,1,0,5.4481228,0,1 @ F,0,1,1,0,5.4481228,0,1 @ F,0,1,1,0,5.4481228,0,1 @ F,0,1,1,0,5.4481228,0,1 @ F,0,1,1,0,5.4481228,0,1 @ F,0,1,1,0,5.4481228,0,1 @ F,0,1,1,0,5.4481228,0,1 @ F,0,1,1,0,5.4481228,0,1 @ F,0,1,1,0,5.4481228,0,1 @ F,0,1,1,0,5.4481228,0,1 @ F,0,1,1,0,5.4481228,0,1 @ F,0,1,1,0,5.4481228,0,1 @ F,0,1,1,0,5.4481228,0,1 @ F,0,1,1,0,5.4481228,0,1 @ F,0,1,1,0,5.4481228,0,1 @ F,0,1,1,0,5.4481228,0,1 @ F,0,1,1,0,5.4481228,0,1 @ F,0,1,1,0,5.4481228,0,1 @ F,0,1,1,0,5.4481228,0,1 @ F,0,1,1,0,5.4481228,0,1 @ F,0,1,1,0,5.4481228,0,1 @ F,0,0,1,0,5.4481228,0,1"
       radius="0"
       unit="px"
       method="auto"
       mode="F"
       chamfer_steps="1"
       flexible="false"
       use_knot_distance="true"
       apply_no_radius="true"
       apply_with_radius="true"
       only_selected="false"
       hide_knots="false" />
    <inkscape:path-effect
       effect="fillet_chamfer"
       id="path-effect6"
       is_visible="true"
       lpeversion="1"
       nodesatellites_param="F,0,1,1,0,5.4481228,0,1 @ F,0,1,1,0,5.4481228,0,1 @ F,0,1,1,0,5.4481228,0,1 @ F,0,1,1,0,5.4481228,0,1 @ F,0,1,1,0,5.4481228,0,1 @ F,0,1,1,0,5.4481228,0,1 @ F,0,1,1,0,5.4481228,0,1 @ F,0,1,1,0,5.4481228,0,1 @ F,0,1,1,0,5.4481228,0,1 @ F,0,1,1,0,5.4481228,0,1 @ F,0,1,1,0,5.4481228,0,1 @ F,0,1,1,0,5.4481228,0,1 @ F,0,1,1,0,5.4481228,0,1 @ F,0,1,1,0,5.4481228,0,1 @ F,0,1,1,0,5.4481228,0,1 @ F,0,1,1,0,5.4481228,0,1 @ F,0,1,1,0,5.4481228,0,1 @ F,0,1,1,0,5.4481228,0,1 @ F,0,1,1,0,5.4481228,0,1 @ F,0,1,1,0,5.4481228,0,1 @ F,0,1,1,0,5.4481228,0,1 @ F,0,1,1,0,5.4481228,0,1 @ F,0,1,1,0,5.4481228,0,1 @ F,0,0,1,0,5.4481228,0,1"
       radius="0"
       unit="px"
       method="auto"
       mode="F"
       chamfer_steps="1"
       flexible="false"
       use_knot_distance="true"
       apply_no_radius="true"
       apply_with_radius="true"
       only_selected="false"
       hide_knots="false" />
    <inkscape:path-effect
       effect="fillet_chamfer"
       id="path-effect4"
       is_visible="true"
       lpeversion="1"
       nodesatellites_param="F,0,1,1,0,9.3827123,0,1 @ F,0,1,1,0,9.3827123,0,1 @ F,0,1,1,0,9.3827123,0,1 @ F,0,1,1,0,9.3827123,0,1 @ F,0,1,1,0,9.3827123,0,1 @ F,0,1,1,0,9.3827123,0,1 @ F,0,1,1,0,9.3827123,0,1 @ F,0,1,1,0,9.3827123,0,1 @ F,0,1,1,0,9.3827123,0,1 @ F,0,1,1,0,9.3827123,0,1 @ F,0,1,1,0,9.3827123,0,1 @ F,0,1,1,0,9.3827123,0,1 @ F,0,1,1,0,9.3827123,0,1 @ F,0,1,1,0,9.3827123,0,1 @ F,0,1,1,0,9.3827123,0,1 @ F,0,1,1,0,9.3827123,0,1 @ F,0,1,1,0,9.3827123,0,1 @ F,0,1,1,0,9.3827123,0,1 @ F,0,1,1,0,9.3827123,0,1 @ F,0,1,1,0,9.3827123,0,1 @ F,0,1,1,0,9.3827123,0,1 @ F,0,1,1,0,9.3827123,0,1 @ F,0,1,1,0,9.3827123,0,1 @ F,0,1,1,0,9.3827123,0,1 @ F,0,0,1,0,9.3827123,0,1 @ F,0,1,1,0,9.3827123,0,1 @ F,0,1,1,0,9.3827123,0,1 @ F,0,1,1,0,9.3827123,0,1 @ F,0,1,1,0,9.3827123,0,1 @ F,0,1,1,0,9.3827123,0,1 @ F,0,1,1,0,9.3827123,0,1 @ F,0,1,1,0,9.3827123,0,1 @ F,0,1,1,0,9.3827123,0,1 @ F,0,1,1,0,9.3827123,0,1 @ F,0,1,1,0,9.3827123,0,1 @ F,0,1,1,0,9.3827123,0,1 @ F,0,1,1,0,9.3827123,0,1 @ F,0,1,1,0,9.3827123,0,1 @ F,0,1,1,0,9.3827123,0,1 @ F,0,1,1,0,9.3827123,0,1 @ F,0,1,1,0,9.3827123,0,1 @ F,0,1,1,0,9.3827123,0,1"
       radius="0"
       unit="px"
       method="auto"
       mode="F"
       chamfer_steps="1"
       flexible="false"
       use_knot_distance="true"
       apply_no_radius="true"
       apply_with_radius="true"
       only_selected="false"
       hide_knots="false" />
    <inkscape:path-effect
       effect="fillet_chamfer"
       id="path-effect3"
       is_visible="true"
       lpeversion="1"
       nodesatellites_param="F,0,1,1,0,2.8277712,0,1 @ F,0,1,1,0,2.8277712,0,1 @ F,0,1,1,0,2.8277712,0,1 @ F,0,1,1,0,2.8277712,0,1 @ F,0,1,1,0,2.8277712,0,1 @ F,0,1,1,0,2.8277712,0,1 @ F,0,1,1,0,2.8277712,0,1 @ F,0,1,1,0,2.8277712,0,1 @ F,0,1,1,0,2.8277712,0,1 @ F,0,1,1,0,2.8277712,0,1 @ F,0,1,1,0,2.8277712,0,1 @ F,0,1,1,0,2.8277712,0,1 @ F,0,1,1,0,2.8277712,0,1 @ F,0,1,1,0,2.8277712,0,1 @ F,0,1,1,0,2.8277712,0,1 @ F,0,1,1,0,2.8277712,0,1 @ F,0,1,1,0,2.8277712,0,1 @ F,0,1,1,0,2.8277712,0,1 @ F,0,1,1,0,2.8277712,0,1 @ F,0,1,1,0,2.8277712,0,1 @ F,0,1,1,0,2.8277712,0,1 @ F,0,1,1,0,2.8277712,0,1 @ F,0,1,1,0,2.8277712,0,1 @ F,0,1,1,0,2.8277712,0,1 @ F,0,1,1,0,2.8277712,0,1 @ F,0,1,1,0,2.8277712,0,1 @ F,0,1,1,0,2.8277712,0,1 @ F,0,1,1,0,2.8277712,0,1 @ F,0,1,1,0,2.8277712,0,1 @ F,0,1,1,0,2.8277712,0,1 @ F,0,1,1,0,2.8277712,0,1 @ F,0,1,1,0,2.8277712,0,1 @ F,0,1,1,0,2.8277712,0,1 @ F,0,1,1,0,2.8277712,0,1 @ F,0,1,1,0,2.8277712,0,1 @ F,0,1,1,0,2.8277712,0,1 @ F,0,1,1,0,2.8277712,0,1 @ F,0,1,1,0,2.8277712,0,1 @ F,0,1,1,0,2.8277712,0,1 @ F,0,1,1,0,2.8277712,0,1 @ F,0,1,1,0,2.8277712,0,1 @ F,0,1,1,0,2.8277712,0,1 @ F,0,1,1,0,2.8277712,0,1 @ F,0,1,1,0,2.8277712,0,1 @ F,0,1,1,0,2.8277712,0,1 @ F,0,1,1,0,2.8277712,0,1 @ F,0,1,1,0,2.8277712,0,1 @ F,0,1,1,0,2.8277712,0,1 @ F,0,1,1,0,2.8277712,0,1 @ F,0,1,1,0,2.8277712,0,1 @ F,0,1,1,0,2.8277712,0,1 @ F,0,1,1,0,2.8277712,0,1 @ F,0,1,1,0,2.8277712,0,1 @ F,0,1,1,0,2.8277712,0,1 @ F,0,1,1,0,2.8277712,0,1 @ F,0,1,1,0,2.8277712,0,1 @ F,0,1,1,0,2.8277712,0,1 @ F,0,1,1,0,2.8277712,0,1 @ F,0,1,1,0,2.8277712,0,1 @ F,0,1,1,0,2.8277712,0,1 @ F,0,1,1,0,2.8277712,0,1 @ F,0,1,1,0,2.8277712,0,1 @ F,0,1,1,0,2.8277712,0,1 @ F,0,1,1,0,2.8277712,0,1 @ F,0,1,1,0,2.8277712,0,1 @ F,0,1,1,0,2.8277712,0,1 @ F,0,1,1,0,2.8277712,0,1 @ F,0,1,1,0,2.8277712,0,1 @ F,0,1,1,0,2.8277712,0,1 @ F,0,1,1,0,2.8277712,0,1 @ F,0,1,1,0,2.8277712,0,1 @ F,0,1,1,0,2.8277712,0,1 @ F,0,1,1,0,2.8277712,0,1 @ F,0,1,1,0,2.8277712,0,1 @ F,0,1,1,0,2.8277712,0,1 @ F,0,1,1,0,2.8277712,0,1 @ F,0,1,1,0,2.8277712,0,1 @ F,0,0,1,0,2.8277712,0,1 @ F,0,1,1,0,2.8277712,0,1 @ F,0,1,1,0,2.8277712,0,1 @ F,0,1,1,0,2.8277712,0,1"
       radius="0"
       unit="px"
       method="auto"
       mode="F"
       chamfer_steps="1"
       flexible="false"
       use_knot_distance="true"
       apply_no_radius="true"
       apply_with_radius="true"
       only_selected="false"
       hide_knots="false" />
    <inkscape:path-effect
       effect="fillet_chamfer"
       id="path-effect2"
       is_visible="true"
       lpeversion="1"
       nodesatellites_param="F,0,0,1,0,0,0,1 @ F,0,0,1,0,0,0,1 @ F,0,0,1,0,0,0,1 @ F,0,0,1,0,0,0,1 @ F,0,0,1,0,0,0,1 @ F,0,0,1,0,0,0,1 @ F,0,0,1,0,0,0,1 @ F,0,0,1,0,0,0,1 @ F,0,0,1,0,0,0,1 @ F,0,0,1,0,0,0,1 @ F,0,0,1,0,0,0,1 @ F,0,0,1,0,0,0,1 @ F,0,0,1,0,0,0,1 @ F,0,0,1,0,0,0,1 @ F,0,0,1,0,0,0,1 @ F,0,0,1,0,0,0,1 @ F,0,0,1,0,0,0,1 @ F,0,0,1,0,0,0,1 @ F,0,0,1,0,0,0,1 @ F,0,0,1,0,0,0,1 @ F,0,0,1,0,0,0,1 @ F,0,0,1,0,0,0,1 @ F,0,0,1,0,0,0,1 @ F,0,0,1,0,0,0,1 @ F,0,0,1,0,0,0,1 @ F,0,0,1,0,0,0,1 @ F,0,0,1,0,0,0,1 @ F,0,0,1,0,0,0,1 @ F,0,0,1,0,0,0,1 @ F,0,0,1,0,0,0,1 @ F,0,0,1,0,0,0,1 @ F,0,0,1,0,0,0,1 @ F,0,0,1,0,0,0,1 @ F,0,0,1,0,0,0,1 @ F,0,0,1,0,0,0,1 @ F,0,0,1,0,0,0,1 @ F,0,0,1,0,0,0,1 @ F,0,0,1,0,0,0,1 @ F,0,0,1,0,0,0,1 @ F,0,0,1,0,0,0,1 @ F,0,0,1,0,0,0,1 @ F,0,0,1,0,0,0,1 @ F,0,0,1,0,0,0,1 @ F,0,0,1,0,0,0,1 @ F,0,0,1,0,0,0,1 @ F,0,0,1,0,0,0,1 @ F,0,0,1,0,0,0,1 @ F,0,0,1,0,0,0,1 @ F,0,0,1,0,0,0,1 @ F,0,0,1,0,0,0,1 @ F,0,0,1,0,0,0,1 @ F,0,0,1,0,0,0,1 @ F,0,0,1,0,0,0,1 @ F,0,0,1,0,0,0,1 @ F,0,0,1,0,0,0,1 @ F,0,0,1,0,0,0,1 @ F,0,0,1,0,0,0,1 @ F,0,0,1,0,0,0,1 @ F,0,0,1,0,0,0,1 @ F,0,0,1,0,0,0,1 @ F,0,0,1,0,0,0,1 @ F,0,0,1,0,0,0,1 @ F,0,0,1,0,0,0,1 @ F,0,0,1,0,0,0,1 @ F,0,0,1,0,0,0,1 @ F,0,0,1,0,0,0,1 @ F,0,0,1,0,0,0,1 @ F,0,0,1,0,0,0,1 @ F,0,0,1,0,0,0,1 @ F,0,0,1,0,0,0,1 @ F,0,0,1,0,0,0,1 @ F,0,0,1,0,0,0,1 @ F,0,0,1,0,0,0,1 @ F,0,0,1,0,0,0,1 @ F,0,0,1,0,0,0,1 @ F,0,0,1,0,0,0,1 @ F,0,0,1,0,0,0,1 @ F,0,0,1,0,0,0,1 @ F,0,0,1,0,0,0,1 @ F,0,0,1,0,0,0,1"
       radius="0"
       unit="px"
       method="auto"
       mode="F"
       chamfer_steps="1"
       flexible="false"
       use_knot_distance="true"
       apply_no_radius="true"
       apply_with_radius="true"
       only_selected="false"
       hide_knots="false" />
    <inkscape:path-effect
       effect="fillet_chamfer"
       id="path-effect2323-5"
       is_visible="true"
       lpeversion="1"
       nodesatellites_param="F,0,0,1,0,4.2333333,0,1 @ F,0,0,1,0,4.2333333,0,1 @ F,0,0,1,0,4.2333333,0,1 @ F,0,0,1,0,4.2333333,0,1 @ F,0,0,1,0,4.2333333,0,1 @ F,0,0,1,0,4.2333333,0,1"
       unit="px"
       method="auto"
       mode="F"
       radius="16"
       chamfer_steps="1"
       flexible="false"
       use_knot_distance="true"
       apply_no_radius="true"
       apply_with_radius="true"
       only_selected="false"
       hide_knots="false" />
  </defs>
  <sodipodi:namedview
     units="px"
     borderlayer="true"
     inkscape:showpageshadow="false"
     showgrid="false"
     inkscape:document-rotation="0"
     inkscape:current-layer="layer1"
     inkscape:document-units="px"
     inkscape:cy="560"
     inkscape:cx="400"
     inkscape:zoom="0.35"
     inkscape:pageshadow="2"
     inkscape:pageopacity="1"
     borderopacity="1"
     bordercolor="#383838"
     pagecolor="#ffffff"
     id="base"
     inkscape:pagecheckerboard="1"
     inkscape:deskcolor="#1f1f1f">
    <inkscape:grid
       id="grid1"
       units="px"
       originx="0"
       originy="0"
       spacingx="1"
       spacingy="1"
       empcolor="#3f3fff"
       empopacity="0.25098039"
       color="#3f3fff"
       opacity="0.1254902"
       empspacing="5"
       dotted="false"
       gridanglex="30"
       gridanglez="30"
       visible="false" />
  </sodipodi:namedview>
  <metadata
     id="metadata5">
    <rdf:RDF>
      <cc:Work
         rdf:about="">
        <dc:format>image/svg+xml</dc:format>
        <dc:type
           rdf:resource="http://purl.org/dc/dcmitype/StillImage" />
        <cc:license
           rdf:resource="http://creativecommons.org/licenses/by-sa/4.0/" />
      </cc:Work>
      <cc:License
         rdf:about="http://creativecommons.org/licenses/by-sa/4.0/">
        <cc:permits
           rdf:resource="http://creativecommons.org/ns#Reproduction" />
        <cc:permits
           rdf:resource="http://creativecommons.org/ns#Distribution" />
        <cc:requires
           rdf:resource="http://creativecommons.org/ns#Notice" />
        <cc:requires
           rdf:resource="http://creativecommons.org/ns#Attribution" />
        <cc:permits
           rdf:resource="http://creativecommons.org/ns#DerivativeWorks" />
        <cc:requires
           rdf:resource="http://creativecommons.org/ns#ShareAlike" />
      </cc:License>
    </rdf:RDF>
  </metadata>
  <g
     id="layer1"
     inkscape:groupmode="layer"
     inkscape:label="Layer 1">
    <path
       id="circle1"
       style="fill:#5e5c64;fill-opacity:1;stroke-width:18;stroke-linecap:round;stroke-linejoin:round;stroke-dashoffset:99.7796;-inkscape-stroke:none;paint-order:markers stroke fill"
       d="m 541.02127,-30.663823 c -2.67289,0.113687 -5.34112,0.318584 -8.00002,0.614329 -1.55213,0.17264 -3.07793,1.582946 -3.41288,3.108341 l -0.8769,3.993634 c -0.33495,1.525395 -1.85357,2.981629 -3.38307,3.297081 -2.91751,0.601721 -5.80906,1.323111 -8.66731,2.162342 -1.49844,0.439964 -3.52408,-0.131469 -4.53745,-1.319779 l -2.45134,-2.874484 c -1.01337,-1.18831 -3.03023,-1.733847 -4.49011,-1.179186 -2.53514,0.963189 -5.03619,2.013815 -7.49866,3.149988 -1.41803,0.654275 -2.42927,2.475425 -2.27647,4.029667 l 0.39002,3.967295 c 0.1528,1.554242 -0.84033,3.4107019 -2.19596,4.1860453 -2.54797,1.4572997 -5.03587,3.0172003 -7.45759,4.6758654 -1.28845,0.8824782 -3.39091,0.9657037 -4.72185,0.1486275 l -3.32477,-2.0411052 c -1.33094,-0.8170762 -3.41317,-0.7069095 -4.62451,0.278763 -2.11611,1.7218837 -4.17164,3.51690929 -6.16286,5.38181136 -1.13985,1.06754054 -1.53337,3.11767144 -0.90781,4.54864954 l 1.55888,3.5660171 c 0.62556,1.430978 0.25632,3.505082 -0.79126,4.663292 -1.95971,2.166661 -3.83128,4.411442 -5.61016,6.728871 -0.95092,1.238805 -2.92332,1.968844 -4.44165,1.603198 l -3.91766,-0.943458 c -1.51833,-0.365646 -3.4585,0.386877 -4.29827,1.703576 -1.46403,2.295525 -2.84789,4.64122 -4.14905,7.032837 -0.74634,1.371815 -0.48054,3.446442 0.5567,4.613982 l 2.52507,2.842277 c 1.03724,1.16754 1.32819,3.254683 0.69116,4.680539 -1.20005,2.686029 -2.29056,5.419667 -3.26885,8.194159 -0.51932,1.472816 -2.16775,2.777244 -3.72475,2.898715 l -4.12527,0.321835 c -1.557,0.121471 -3.16345,1.438507 -3.54751,2.952244 -0.66304,2.613359 -1.23599,5.248759 -1.71782,7.901516 -0.27909,1.536556 0.62024,3.428537 1.96738,4.21861 l 3.29734,1.933816 c 1.34714,0.790073 2.26051,2.684174 2.0851,4.235983 -0.33474,2.961391 -0.54756,5.935297 -0.63792,8.914178 -0.0473,1.560973 -1.21894,3.311014 -2.66218,3.907745 l -3.47475,1.4367 c -1.44324,0.596731 -2.59526,2.346609 -2.53119,3.906991 0.11081,2.698797 0.3146,5.392977 0.61101,8.077735 0.17137,1.55227 1.58068,3.0781 3.10611,3.41289 l 4.04234,0.88721 c 1.52543,0.33479 2.97873,1.85382 3.29055,3.38406 0.58589,2.87521 1.28795,5.72552 2.10446,8.54393 0.43456,1.50001 -0.14121,3.52706 -1.32951,4.54045 l -2.90186,2.47473 c -1.1883,1.01339 -1.7363,3.03111 -1.18466,4.49214 0.96343,2.55161 2.01536,5.06892 3.15388,7.54736 0.65191,1.41912 2.47116,2.4313 4.0254,2.2785 l 3.98684,-0.39197 c 1.55424,-0.1528 3.40774,0.84191 4.17949,2.19958 1.44206,2.53691 2.9857,5.01471 4.62714,7.42741 0.87845,1.2912 0.95859,3.39605 0.14166,4.72708 l -2.04162,3.3264 c -0.81693,1.33103 -0.70886,3.41503 0.27416,4.62853 1.71941,2.12257 3.51228,4.18456 5.37535,6.18223 1.06514,1.14209 3.11332,1.53738 4.54424,0.91169 l 3.5506,-1.55254 c 1.43092,-0.62569 3.50219,-0.25366 4.65706,0.7976 2.1694,1.97476 4.41785,3.8609 6.73983,5.65379 1.23609,0.95443 1.96405,2.92976 1.59845,4.44809 l -0.93581,3.88639 c -0.3656,1.51833 0.38563,3.46047 1.70076,4.30269 2.28398,1.46268 4.61789,2.84588 6.99754,4.14712 1.37022,0.74926 3.44374,0.486 4.61142,-0.55107 l 2.80855,-2.49442 c 1.16768,-1.03707 3.25296,-1.32379 4.67651,-0.68163 2.7185,1.2263 5.48632,2.34021 8.29641,3.33891 1.47153,0.52298 2.77492,2.17441 2.8963,3.73142 l 0.31825,4.08226 c 0.12138,1.55701 1.43837,3.16339 2.95213,3.54734 2.59098,0.65717 5.20362,1.22578 7.83336,1.70484 1.53641,0.27989 3.42823,-0.61883 4.21822,-1.96602 l 1.8716,-3.19169 c 0.78999,-1.34719 2.68385,-2.25933 4.23548,-2.08235 3.03194,0.34582 6.0771,0.56382 9.12739,0.65342 1.56101,0.0459 3.31099,1.21626 3.90764,2.65953 l 1.40574,3.40041 c 0.59665,1.44327 2.34649,2.59743 3.90698,2.53597 2.66295,-0.10489 5.32158,-0.3003 7.97125,-0.58589 1.5527,-0.16735 3.07913,-1.57338 3.41412,-3.09876 l 0.86503,-3.93899 c 0.33499,-1.52538 1.85456,-2.97636 3.38537,-3.28538 2.96522,-0.59858 5.90416,-1.32066 8.80916,-2.16437 1.49971,-0.43557 3.52658,0.13932 4.54007,1.32754 l 2.4021,2.81622 c 1.01349,1.18822 3.03157,1.73694 4.49295,1.18626 2.51374,-0.94723 4.99428,-1.98034 7.43723,-3.0975 1.42024,-0.64948 2.43337,-2.46679 2.28057,-4.02103 l -0.38025,-3.86769 c -0.1528,-1.55424 0.84292,-3.40583 2.2019,-4.17527 2.62546,-1.4865 5.1879,-3.08166 7.68067,-4.78133 1.29029,-0.87978 3.39439,-0.96099 4.72543,-0.14408 l 3.2248,1.9792 c 1.33104,0.81691 3.41474,0.70842 4.62785,-0.27507 2.08781,-1.69263 4.11695,-3.45635 6.08386,-5.28807 1.14286,-1.06431 1.53887,-3.11188 0.91329,-4.54284 l -1.50605,-3.44497 c -0.62558,-1.43096 -0.2523,-3.50114 0.80043,-4.65467 2.04504,-2.24083 3.99539,-4.56628 5.84591,-6.97025 0.9526,-1.23751 2.92641,-1.96658 4.44475,-1.60099 l 3.77309,0.9085 c 1.51834,0.36559 3.45907,-0.38661 4.29951,-1.70288 1.43678,-2.25022 2.79649,-4.54875 4.07676,-6.89156 0.74889,-1.37042 0.48514,-3.44392 -0.55218,-4.6114 l -2.42323,-2.72728 c -1.03732,-1.16748 -1.32322,-3.25209 -0.67979,-4.67507 1.26668,-2.80135 2.41395,-5.65518 3.43872,-8.55378 0.52054,-1.47238 2.16997,-2.77646 3.72698,-2.89789 l 3.95337,-0.30831 c 1.55701,-0.12143 3.16277,-1.43863 3.54598,-2.95258 0.64703,-2.55632 1.20787,-5.13368 1.68157,-7.72772 0.28055,-1.53629 -0.61759,-3.42809 -1.96474,-4.21817 l -3.12742,-1.83419 c -1.34715,-0.79008 -2.25798,-2.68382 -2.07944,-4.235269 0.35748,-3.106361 0.58077,-6.2267 0.66924,-9.35231 0.0442,-1.561066 1.21328,-3.310952 2.65659,-3.907491 l 3.45885,-1.429584 c 1.44331,-0.596539 2.58097,-2.345974 2.49913,-3.905525 -0.1373,-2.616203 -0.36201,-5.227088 -0.67375,-7.828275 -0.18584,-1.550601 -1.60679,-3.07496 -3.13217,-3.409995 l -3.72417,-0.817982 c -1.52538,-0.335035 -2.98044,-1.853935 -3.29448,-3.383726 -0.62743,-3.056419 -1.38615,-6.08441 -2.27407,-9.075559 -0.44441,-1.497121 0.12342,-3.52162 1.3117,-4.535037 l 2.90389,-2.476577 c 1.18828,-1.013417 1.72387,-3.026793 1.15709,-4.48201 -0.95146,-2.442882 -1.98437,-4.853256 -3.097,-7.227074 -0.66279,-1.414076 -2.49074,-2.421845 -4.04498,-2.268948 l -3.74271,0.368187 c -1.55424,0.152897 -3.40938,-0.840856 -4.18314,-2.197388 -1.54459,-2.707954 -3.20497,-5.348212 -4.9765,-7.913451 -0.88744,-1.28504 -0.9747,-3.38467 -0.15773,-4.715677 l 1.97705,-3.221014 c 0.81697,-1.331007 0.70714,-3.413618 -0.27803,-4.625376 -1.6589,-2.040469 -3.38581,-4.0247039 -5.1778,-5.9493496 -1.06419,-1.1429735 -3.11168,-1.5391031 -4.54266,-0.913552 l -3.5035,1.531554 c -1.43098,0.6255511 -3.50156,0.2526525 -4.65556,-0.7995683 -2.28806,-2.0862647 -4.66421,-4.0738197 -7.12196,-5.95722576 -1.23957,-0.9499077 -1.97026,-2.92148294 -1.60468,-4.43982494 l 0.89485,-3.716441 c 0.36558,-1.518342 -0.38351,-3.4636404 -1.69609,-4.3098234 -2.21406,-1.427337 -4.47547,-2.779853 -6.7804,-4.055255 -1.36645,-0.756109 -3.437,-0.498415 -4.60461,0.538746 l -2.86937,2.548793 c -1.16761,1.037161 -3.25315,1.324635 -4.67709,0.683334 -2.80622,-1.263838 -5.66485,-2.407934 -8.56815,-3.429195 -1.4732,-0.518213 -2.77778,-2.165747 -2.89908,-3.722764 l -0.29902,-3.838105 c -0.1213,-1.557017 -1.43479,-3.175315 -2.94472,-3.574073 -2.55817,-0.67559 -5.13843,-1.264624 -7.73635,-1.766094 -1.5334,-0.295985 -3.42311,0.589622 -4.21309,1.936821 l -1.95172,3.328391 c -0.78998,1.347199 -2.68428,2.262481 -4.23635,2.089392 -3.00215,-0.334804 -6.01696,-0.544327 -9.03657,-0.628024 -1.5611,-0.04327 -3.00036,-0.03378 -2.93872,-0.03378 l -2.47861,-5.997903 c -0.59646,-1.443348 -2.34608,-2.593601 -3.90637,-2.527236 z"
       inkscape:path-effect="#path-effect3"
       inkscape:original-d="m 543.84766,-30.75 c -4.56073,0.08417 -9.11271,0.433724 -13.63282,1.046875 l -2.08984,9.517578 a 108.70847,108.70847 0 0 0 -14.14648,3.529297 l -6.1211,-7.177734 c -4.33642,1.529255 -8.57939,3.311618 -12.70703,5.33789 l 0.94336,9.5957034 a 108.70847,108.70847 0 0 0 -12.24219,7.6757812 l -8.14453,-5 c -3.64819,2.8254608 -7.12687,5.86327512 -10.41797,9.0976563 l 3.82422,8.7480471 A 108.70847,108.70847 0 0 0 459.88672,22.6875 l -9.41602,-2.267578 c -2.57105,3.825113 -4.91495,7.798125 -7.01953,11.898437 l 6.28125,7.070313 a 108.70847,108.70847 0 0 0 -5.36133,13.439453 l -9.76367,0.761719 c -1.23341,4.41326 -2.20773,8.894875 -2.91797,13.421875 l 8.17578,4.794922 a 108.70847,108.70847 0 0 0 -1.04101,14.546875 l -8.70117,3.597656 c 0.0779,4.586628 0.42419,9.164778 1.03711,13.710938 l 9.5664,2.09961 a 108.70847,108.70847 0 0 0 3.45508,14.02734 l -7.20508,6.14453 c 1.52542,4.3542 3.30585,8.61483 5.33203,12.75977 l 9.61524,-0.94531 a 108.70847,108.70847 0 0 0 7.61328,12.2207 l -5,8.14648 c 2.81956,3.65713 5.85217,7.14494 9.08203,10.44532 l 8.73242,-3.81836 a 108.70847,108.70847 0 0 0 11.06641,9.2832 l -2.25977,9.38477 c 3.81163,2.57233 7.77092,4.91882 11.85742,7.02734 l 7.03711,-6.25 a 108.70847,108.70847 0 0 0 13.53516,5.44727 l 0.75781,9.7207 c 4.39105,1.22687 8.84976,2.19726 13.35352,2.90625 l 4.73242,-8.07031 a 108.70847,108.70847 0 0 0 14.75977,1.05664 l 3.5664,8.62695 c 4.55069,-0.0697 9.0935,-0.40359 13.60547,-1 l 2.07813,-9.46289 a 108.70847,108.70847 0 0 0 14.29297,-3.51172 l 6.07226,7.11914 c 4.31633,-1.50896 8.54097,-3.26846 12.65234,-5.26953 l -0.93359,-9.49609 A 108.70847,108.70847 0 0 0 611,174.48828 l 8.04492,4.9375 c 3.62125,-2.79419 7.07635,-5.79735 10.34766,-8.99414 l -3.77149,-8.62695 a 108.70847,108.70847 0 0 0 9.47461,-11.29688 l 9.27149,2.23242 c 2.5435,-3.77991 4.86514,-7.70452 6.95312,-11.7539 l -6.17969,-6.95508 a 108.70847,108.70847 0 0 0 5.54493,-13.79297 l 9.59179,-0.74805 c 1.215,-4.35687 2.17754,-8.78025 2.88282,-13.24804 l -8.00586,-4.69531 a 108.70847,108.70847 0 0 0 1.07226,-14.98438 l 8.68555,-3.589844 c -0.12785,-4.504162 -0.51456,-8.997262 -1.1582,-13.457031 l -9.24805,-2.03125 a 108.70847,108.70847 0 0 0 -3.64648,-14.552734 l 7.20703,-6.146485 c -1.5345,-4.238586 -3.31153,-8.385417 -5.32227,-12.419922 l -9.37109,0.921875 A 108.70847,108.70847 0 0 0 635.39062,22.59375 l 4.93555,-8.041016 c -2.76366,-3.571503 -5.73082,-6.9808063 -8.88672,-10.2109371 l -8.68554,3.796875 a 108.70847,108.70847 0 0 0 -11.45313,-9.5800781 l 2.21875,-9.2148438 c -3.73935,-2.540008 -7.62211,-4.862229 -11.62891,-6.955078 l -7.09765,6.304687 a 108.70847,108.70847 0 0 0 -13.81055,-5.527343 l -0.73828,-9.476563 C 575.8914,-27.572805 571.4693,-28.582305 567,-29.333984 l -4.8125,8.207031 a 108.70847,108.70847 0 0 0 -14.66992,-1.019531 108.70847,108.70847 0 0 0 -0.11133,0.0078 z"
       transform="matrix(0.85192598,0,0,0.85192598,-791.24747,-28.77802)" />
    <rect
       style="font-variation-settings:'wght' 800;fill:#77767b;fill-opacity:1;stroke-width:18;stroke-linecap:round;stroke-linejoin:round;stroke-dashoffset:99.7796;-inkscape-stroke:none;paint-order:markers stroke fill"
       id="rect4"
       width="200"
       height="200"
       x="0"
       y="0"
       rx="29.164062"
       ry="29.164062" />
    <path
       id="path5"
       style="font-variation-settings:'wght' 800;fill:#ffffff;fill-opacity:1;stroke-width:18;stroke-linecap:round;stroke-linejoin:round;stroke-dashoffset:99.7796;-inkscape-stroke:none;paint-order:markers stroke fill"
       transform="matrix(0.38317774,0,0,0.38317774,4.9273791,87.25481)"
       d="m 354.57589,43.048404 c -2.63145,-0.02428 -5.34541,1.747023 -6.37657,4.169491 l -6.87609,16.158053 c -1.17846,2.768535 -4.58322,4.995075 -7.56931,5.352036 -3.17198,0.379184 -6.30081,1.069009 -9.33803,2.05926 -2.85921,0.932216 -6.88993,0.348281 -9.12904,-1.66168 L 302.26866,57.437736 c -2.23911,-2.009961 -6.10348,-2.309637 -8.4868,-0.474038 -3.6561,2.815871 -7.04441,5.960872 -10.1281,9.394099 -2.01018,2.238039 -2.0275,6.132881 -0.21917,8.537772 l 10.51038,13.971364 c 1.80832,2.404892 2.03937,6.474127 0.86142,9.241183 -1.23435,2.899554 -2.18552,5.908594 -2.83913,8.991424 -0.62374,2.94195 -3.14934,6.14074 -6.00957,7.07488 l -16.60151,5.4234 c -2.86023,0.93414 -5.06356,4.1314 -4.68431,7.11566 0.58238,4.58255 1.58093,9.10219 2.98695,13.50242 0.91563,2.86553 4.2664,4.82857 7.25328,4.46513 l 17.33551,-2.11023 c 2.98688,-0.36344 6.63119,1.46687 8.44092,3.86875 1.89862,2.51986 4.03845,4.85056 6.38677,6.95765 2.23837,2.00845 3.7456,5.79244 3.12457,8.73656 l -3.6139,17.11123 c -0.62104,2.94412 1.04032,6.466 3.80759,7.64577 4.24337,1.80907 8.64428,3.22736 13.14562,4.23575 2.9355,0.65761 6.30927,-1.24295 7.48775,-4.01148 l 6.8761,-16.16315 c 1.17848,-2.76852 4.58321,-4.99507 7.5693,-5.35203 3.17199,-0.37919 6.30081,-1.06901 9.33803,-2.05926 2.85922,-0.93222 6.88994,-0.34829 9.12905,1.66168 l 13.01819,11.68782 c 2.23911,2.00997 6.10348,2.30964 8.4868,0.47404 3.6561,-2.81587 7.04441,-5.96087 10.12809,-9.3941 2.01018,-2.23804 2.02751,-6.13288 0.21918,-8.53777 L 385.28639,145.4609 c -1.80833,-2.4049 -2.04447,-6.47413 -0.86652,-9.24119 1.23435,-2.89955 2.18552,-5.90859 2.83913,-8.99142 0.62374,-2.94195 3.14935,-6.14069 6.00957,-7.07488 l 16.76971,-5.47947 c 2.86022,-0.93418 5.06682,-4.13181 4.68431,-7.11566 -0.58594,-4.57074 -1.59171,-9.078139 -2.99714,-13.46674 -0.91748,-2.864938 -4.26641,-4.828614 -7.25328,-4.465127 l -17.39667,2.115328 c -2.98688,0.363487 -6.6249,-1.463948 -8.43073,-3.868757 -1.91927,-2.555858 -4.08743,-4.916954 -6.46832,-7.049397 -2.24019,-2.006418 -3.74569,-5.787359 -3.12457,-8.731465 l 3.61899,-17.152003 c 0.62112,-2.944107 -1.04858,-6.452029 -3.82288,-7.615183 -4.24991,-1.781821 -8.65317,-3.172978 -13.15581,-4.1542 -0.36741,-0.08007 -0.74036,-0.118863 -1.11629,-0.122332 z m -14.87866,48.142842 a 25.962828,25.962828 0 0 1 25.95993,25.959924 25.962828,25.962828 0 0 1 -25.95993,25.96502 25.962828,25.962828 0 0 1 -25.96502,-25.96502 25.962828,25.962828 0 0 1 25.96502,-25.959924 z m 54.27159,-162.245253 -13.06812,-7.544857 -75.20596,-43.420216 c -13.80842,-7.97229 -31.06897,1.99308 -31.06897,17.93767 v 15.089709 86.840433 c 0,15.944603 17.26055,25.909981 31.06897,17.937689 l 13.06804,-7.5448514 75.20604,-43.4202156 c 13.80842,-7.9723 13.80842,-27.903059 0,-35.875361 z M 139.16486,57.654784 h 45.00011 c 24.54324,0 44.30187,19.758612 44.30187,44.301846 v 45.00013 c 0,24.54323 -19.75863,44.3019 -44.30187,44.3019 h -45.00011 c -24.54324,0 -44.301865,-19.75867 -44.301865,-44.3019 v -45.00013 c 0,-24.543234 19.758625,-44.301846 44.301865,-44.301846 z m 93.75543,-111.336686 c 1e-5,39.353264 -31.90212,71.255389 -71.25538,71.255384 -39.35326,-6e-6 -71.255381,-31.902125 -71.255376,-71.255384 3e-6,-39.353257 31.902116,-71.255378 71.255376,-71.255378 39.35326,0 71.25538,31.902116 71.25538,71.255378 z" />
    <rect
       style="font-variation-settings:'wght' 800;fill:#5e5c64;fill-opacity:1;stroke-width:18;stroke-linecap:round;stroke-linejoin:round;stroke-dashoffset:99.7796;-inkscape-stroke:none;paint-order:markers stroke fill"
       id="rect6"
       width="200"
       height="200"
       x="-1.9140625"
       y="-322.73438"
       rx="29.164062"
       ry="29.164062" />
    <path
       id="path6"
       style="fill:#cdab8f;fill-opacity:1;stroke-width:30.9973"
       d="m 153.9734,-262.70588 -5.00741,-2.89102 -28.81725,-16.63766 c -5.29108,-3.0548 -11.90494,0.7637 -11.90494,6.87332 v 5.78204 33.27532 c 0,6.10961 6.61386,9.92812 11.90494,6.87332 l 5.00738,-2.89102 28.81728,-16.63766 c 5.29108,-3.05481 5.29108,-10.69183 0,-13.74664 z m -97.635206,49.31834 h 17.243039 c 9.404422,0 16.975489,7.57107 16.975489,16.97549 v 17.24305 c 0,9.40442 -7.571067,16.9755 -16.975489,16.9755 h -17.24304 c -9.404422,0 -16.975489,-7.57108 -16.975489,-16.9755 v -17.24305 c 0,-9.40442 7.571067,-16.97549 16.97549,-16.97549 z m 35.924994,-42.66173 c 10e-7,15.07929 -12.224182,27.30347 -27.303478,27.30347 -15.079293,0 -27.303475,-12.22418 -27.303472,-27.30347 0,-15.0793 12.224182,-27.30348 27.303472,-27.30348 15.079295,0 27.303477,12.22418 27.303478,27.30348 z"
       sodipodi:nodetypes="scsscsscssssssssssssssss" />
    <path
       d="m 135.13501,-215.27958 -1.58503,4.17891 c -0.24475,0.64525 -0.61315,1.16223 -0.82292,1.15898 -2.02377,0.1051 -2.79547,0.20357 -3.55981,0.34508 -0.6785,0.12557 -1.52695,-0.20407 -1.90424,-0.78193 l -2.4418,-3.73993 c -0.37728,-0.57787 -1.21514,-0.87207 -1.85912,-0.62412 -0.96297,0.37076 -1.90421,0.79565 -2.8192,1.27265 -0.61191,0.31902 -0.94753,1.14256 -0.76626,1.80844 l 1.16851,4.29227 c 0.18127,0.66591 -0.13496,1.52066 -0.67808,1.94618 -0.71192,0.55771 -1.38656,1.16145 -2.01957,1.80732 -0.483,0.49278 -1.37001,0.71903 -2.01489,0.47328 l -4.11993,-1.56998 c -0.64488,-0.24574 -1.50031,0.005 -1.88155,0.58048 -0.56931,0.8589 -1.08965,1.74926 -1.55857,2.66685 -0.31401,0.61447 -0.10679,1.47562 0.43122,1.90776 l 3.50662,2.81642 c 0.53806,0.43214 0.78882,1.31097 0.60469,1.97595 -0.23926,0.86414 -0.42218,1.74289 -0.54759,2.6307 -0.0966,0.68324 -0.67739,1.38793 -1.34356,1.56817 l -4.35395,1.17799 c -0.66617,0.18024 -1.19993,0.88613 -1.15707,1.57485 0.064,1.02826 0.186,2.05209 0.36542,3.0666 0.1202,0.6795 0.80441,1.25214 1.49373,1.28552 l 4.40513,0.21335 c 0.68933,0.0334 1.4093,0.59684 1.65186,1.2428 0.31834,0.8477 0.69191,1.67364 1.11829,2.47247 0.32493,0.60872 0.2703,1.51958 -0.16278,2.05695 l -2.77743,3.44694 c -0.43299,0.53738 -0.45787,1.428 -0.0278,1.96763 0.64274,0.80646 1.33052,1.57595 2.06008,2.30479 0.48818,0.48771 1.37184,0.55613 1.94913,0.17797 l 3.75655,-2.46076 c 0.57731,-0.37816 1.48933,-0.34339 2.06345,0.0394 0.74698,0.49804 1.52555,0.947 2.33079,1.34402 0.61888,0.30514 1.1088,1.07722 1.07435,1.76647 l -0.22303,4.46307 c -0.0344,0.68927 0.47069,1.41902 1.13765,1.59603 0.99635,0.26445 2.00683,0.47239 3.02662,0.62287 0.68268,0.10076 1.43834,-0.36896 1.68311,-1.01424 l 1.57276,-4.14638 c 0.24476,-0.64527 0.61004,-1.1545 0.81618,-1.14156 2.02386,-0.10512 2.79565,-0.20356 3.56006,-0.34506 0.6785,-0.12557 1.52695,0.20406 1.90423,0.78192 l 2.44181,3.73993 c 0.37728,0.57786 1.21514,0.87205 1.85911,0.62412 0.96297,-0.37075 1.90422,-0.79564 2.81921,-1.27266 0.6119,-0.319 0.94753,-1.14255 0.76626,-1.80844 l -1.16851,-4.29227 c -0.18127,-0.66589 0.13496,-1.52067 0.67806,-1.94621 0.71184,-0.55771 1.38641,-1.16141 2.01935,-1.80726 0.48299,-0.4928 1.37,-0.71906 2.01488,-0.47333 l 4.12018,1.57002 c 0.64488,0.24574 1.50029,-0.005 1.88152,-0.58052 0.56924,-0.8589 1.08952,-1.74925 1.55838,-2.6668 0.31398,-0.61448 0.10679,-1.47565 -0.43124,-1.90781 l -3.5064,-2.81636 c -0.53805,-0.43218 -0.78883,-1.31101 -0.60474,-1.97602 0.23923,-0.86411 0.42209,-1.74286 0.54746,-2.63068 0.0964,-0.68323 0.67734,-1.38791 1.34351,-1.56815 l 4.36174,-1.18009 c 0.66615,-0.18023 1.2055,-0.88614 1.16946,-1.57526 -0.0537,-1.02493 -0.1648,-2.04604 -0.33303,-3.05848 -0.11316,-0.68073 -0.7917,-1.25463 -1.48103,-1.288 l -4.45559,-0.21573 c -0.6893,-0.0334 -1.40791,-0.59722 -1.64882,-1.24383 -0.31834,-0.85442 -0.69276,-1.68689 -1.12079,-2.49198 -0.32391,-0.60927 -0.2685,-1.52062 0.16446,-2.05801 l 2.80348,-3.47941 c 0.43299,-0.5374 0.45462,-1.42568 0.0206,-1.96225 -0.64518,-0.79784 -1.33473,-1.55876 -2.06534,-2.27919 -0.49137,-0.48451 -1.37746,-0.55017 -1.95473,-0.172 l -3.73788,2.44871 c -0.57729,0.3782 -1.48966,0.34391 -2.06418,-0.0382 -0.75922,-0.50502 -1.55095,-0.95937 -2.37004,-1.36006 -0.61981,-0.30322 -1.11041,-1.0737 -1.07598,-1.76297 l 0.22255,-4.45526 c 0.0344,-0.68925 -0.47009,-1.42086 -1.13643,-1.60025 -0.99113,-0.26683 -1.9965,-0.47769 -3.01131,-0.63159 -0.68227,-0.10344 -1.43771,0.36397 -1.68245,1.00924 z"
       style="fill:#cdab8f;fill-opacity:1;stroke-width:30.9973"
       id="path7" />
    <circle
       style="font-variation-settings:'wght' 800;fill:#5e5c64;fill-opacity:1;stroke-width:19.9764;stroke-linecap:round;stroke-linejoin:round;stroke-dashoffset:99.7796;-inkscape-stroke:none;paint-order:markers stroke fill"
       id="circle7"
       cx="132.73672"
       cy="-189.24831"
       r="11.589781" />
    <rect
       style="font-variation-settings:'wght' 800;fill:#5e5c64;fill-opacity:1;stroke-width:18;stroke-linecap:round;stroke-linejoin:round;stroke-dashoffset:99.7796;-inkscape-stroke:none;paint-order:markers stroke fill"
       id="rect1"
       width="200"
       height="200"
       x="463.3483"
       y="0"
       rx="29.164062"
       ry="29.164062" />
    <path
       id="path1"
       style="fill:#cdab8f;fill-opacity:1;stroke-width:30.9973"
       d="m 619.23575,60.028496 -5.00741,-2.891021 -28.81725,-16.637661 c -5.29108,-3.054804 -11.90494,0.763704 -11.90494,6.873318 v 5.782039 33.275321 c 0,6.109617 6.61386,9.928128 11.90494,6.873323 l 5.00738,-2.891019 28.81728,-16.63766 c 5.29108,-3.054808 5.29108,-10.691831 0,-13.74664 z m -97.6352,49.318344 h 17.24304 c 9.40442,0 16.97549,7.57106 16.97549,16.97548 v 17.24305 c 0,9.40442 -7.57107,16.9755 -16.97549,16.9755 h -17.24304 c -9.40442,0 -16.97549,-7.57108 -16.97549,-16.9755 v -17.24305 c 0,-9.40442 7.57107,-16.97548 16.97549,-16.97548 z M 557.52554,66.6851 c 0,15.079295 -12.22418,27.303479 -27.30348,27.303477 -15.07929,-2e-6 -27.30347,-12.224184 -27.30347,-27.303477 0,-15.079292 12.22418,-27.303473 27.30347,-27.303474 15.0793,-2e-6 27.30348,12.22418 27.30348,27.303474 z"
       sodipodi:nodetypes="scsscsscssssssssssssssss" />
    <path
       id="path2"
       style="font-variation-settings:'wght' 800;fill:#cdab8f;fill-opacity:1;stroke-width:18;stroke-linecap:round;stroke-linejoin:round;stroke-dashoffset:99.7796;-inkscape-stroke:none;paint-order:markers stroke fill"
       d="m 348.19824,47.217958 -6.87695,16.155881 c -1.17846,2.768537 -4.58213,4.99964 -7.56823,5.356602 -3.17199,0.379184 -6.29918,1.068885 -9.3364,2.059137 -2.85922,0.932217 -6.89002,0.344697 -9.12913,-1.665265 L 302.26911,57.438187 c -2.23911,-2.009962 -6.10308,-2.308658 -8.4864,-0.473056 -3.6561,2.815873 -7.0472,5.96009 -10.13088,9.39332 -2.01019,2.238042 -2.02573,6.130163 -0.2174,8.535057 l 10.5081,13.974702 c 1.80833,2.404894 2.04319,6.470811 0.86524,9.237869 -1.23435,2.899551 -2.18501,5.911921 -2.83862,8.994751 -0.62375,2.94196 -3.14916,6.13886 -6.0094,7.073 l -16.60114,5.42187 c -2.86024,0.93414 -5.06625,4.13183 -4.68699,7.1161 0.58238,4.58255 1.58285,9.10228 2.98887,13.50251 0.91563,2.86554 4.26477,4.8309 7.25165,4.46746 l 17.33783,-2.10964 c 2.98688,-0.36344 6.62761,1.46506 8.43734,3.86694 1.89862,2.51986 4.03716,4.84975 6.38548,6.95685 2.23837,2.00844 3.74603,5.79155 3.12499,8.73567 l -3.6104,17.11572 c -0.62104,2.94412 1.03876,6.46602 3.80604,7.64579 4.24337,1.80907 8.64322,3.22667 13.14457,4.23506 2.93551,0.65761 6.30994,-1.24554 7.48843,-4.01407 l 6.8788,-16.15982 c 1.17849,-2.76853 4.58218,-4.99962 7.56828,-5.35658 3.17199,-0.37919 6.29919,-1.06889 9.33641,-2.05914 2.85922,-0.93222 6.89002,-0.3447 9.12913,1.66526 l 13.01841,11.68613 c 2.23911,2.00996 6.10308,2.30866 8.4864,0.47306 3.6561,-2.81588 7.04721,-5.9601 10.13089,-9.39333 2.01019,-2.23804 2.02573,-6.13016 0.2174,-8.53506 l -10.5081,-13.97469 c -1.80833,-2.4049 -2.04319,-6.47082 -0.86525,-9.23787 1.23435,-2.89956 2.18502,-5.91193 2.83863,-8.99476 0.62374,-2.94196 3.14914,-6.1389 6.00936,-7.07309 l 16.77308,-5.47832 c 2.86022,-0.93419 5.06355,-4.1318 4.68104,-7.11565 -0.58594,-4.57075 -1.58788,-9.07854 -2.99331,-13.467145 -0.91748,-2.864942 -4.26807,-4.82967 -7.25495,-4.466183 l -17.3984,2.11729 c -2.98688,0.363487 -6.62415,-1.466951 -8.42999,-3.871763 -1.91927,-2.55586 -4.08501,-4.91709 -6.46591,-7.049535 -2.24019,-2.00642 -3.74904,-5.787691 -3.12793,-8.731801 l 3.61793,-17.148983 c 0.62111,-2.94411 -1.04539,-6.453001 -3.81969,-7.616156 -4.24991,-1.781823 -8.65366,-3.172017 -13.15631,-4.15324 -2.93928,-0.640533 -6.31564,1.276707 -7.4941,4.045244 z"
       transform="matrix(0.38317774,0,0,0.38317774,468.27567,87.25481)"
       inkscape:path-effect="#path-effect7"
       inkscape:original-d="M 350.33203,42.205078 339.1875,68.386719 a 48.809006,48.809006 0 0 0 -19.8457,4.376953 L 298.21484,53.798828 a 75.728928,75.728928 0 0 0 -18.05468,16.740234 l 17.05664,22.683594 a 48.809006,48.809006 0 0 0 -6.07813,19.259764 l -26.95898,8.80469 a 75.728928,75.728928 0 0 0 5.32422,24.05273 l 28.15429,-3.42578 a 48.809006,48.809006 0 0 0 13.66407,14.88672 l -5.85938,27.77734 a 75.728928,75.728928 0 0 0 23.42969,7.54883 l 11.14648,-26.18554 a 48.809006,48.809006 0 0 0 19.84571,-4.37696 l 21.12695,18.96485 a 75.728928,75.728928 0 0 0 18.05469,-16.74024 l -17.05664,-22.68359 a 48.809006,48.809006 0 0 0 6.07812,-19.25977 l 27.13086,-8.86132 a 75.728928,75.728928 0 0 0 -5.33789,-24.01563 l -28.21484,3.433594 A 48.809006,48.809006 0 0 0 367.92578,77.421875 l 5.86719,-27.810547 a 75.728928,75.728928 0 0 0 -23.46094,-7.40625 z" />
    <circle
       style="font-variation-settings:'wght' 800;fill:#5e5c64;fill-opacity:1;stroke-width:17.1473;stroke-linecap:round;stroke-linejoin:round;stroke-dashoffset:99.7796;-inkscape-stroke:none;paint-order:markers stroke fill"
       id="circle2"
       cx="598.43988"
       cy="132.14551"
       r="9.9483776" />
  </g>
</svg>
