<svg width="256" height="256" viewBox="0 0 33.87 33.87"><defs><filter id="a" width="1" height="1" x="0" y="0"><feColorMatrix in="SourceGraphic" type="matrix" values="0 0 0 0 1 0 0 0 0 1 0 0 0 0 1 0 0 0 1 0"/></filter><g id="b"><svg width="128" height="128" viewBox="0 0 128 128"><g fill="#fff" stroke-width="2.22" transform="translate(-509.2 -276.78)scale(3.2331)"><circle cx="166.69" cy="95.65" r="9.05"/><rect width="16.41" height="16.41" x="158.41" y="107.8" rx="4.38" ry="4.38"/><path d="m195.64 93.39-1.65-.96-9.48-5.47a2.61 2.61 0 0 0-3.92 2.26v12.86a2.61 2.61 0 0 0 3.92 2.26l1.65-.95 9.48-5.48a2.61 2.61 0 0 0 0-4.52"/><path stroke-width="5.88" d="M195 116.11a1.6 1.6 0 0 1-1.6 1.59h-12.7a1.58 1.58 0 1 1 0-3.18h12.7c.88 0 1.6.71 1.6 1.59m-7.95-7.94c.88 0 1.6.71 1.6 1.59v12.7a1.58 1.58 0 1 1-3.18 0v-12.7c0-.88.7-1.59 1.58-1.59"/></g></svg></g></defs><g><g transform="translate(1.32 1.32)scale(.12196)"><rect width="256" height="256" x="0" y="0" fill="#4A86CF" ry="128"/><use filter="url(#a)" href="#b" transform="translate(64 64)"/></g></g></svg>
